<svg id="Layer_1" data-name="Layer 1" xmlns="http://www.w3.org/2000/svg" viewBox="0 0 48 48"><defs><style>.cls-1{fill:#ffda9f;}.cls-2{fill:#c48792;}.cls-3{fill:#2d2b28;}.cls-4{fill:#2b2a27;}.cls-5{fill:#2b2927;}</style></defs><path class="cls-1" d="M11.8,22.48a3.64,3.64,0,0,0,0-.66A2.32,2.32,0,0,1,13.39,19a72.52,72.52,0,0,1,6.7-3,18.93,18.93,0,0,1,6.33-1.21c3.18.07,6.38-.2,9.48.75.92.28,1.81.65,2.7,1a.89.89,0,0,1,.48.41,16.51,16.51,0,0,1,1.58,3.62,8.9,8.9,0,0,1-.2,3.67,10.89,10.89,0,0,1-3.82,6.39,25.64,25.64,0,0,1-6.34,3.64,15,15,0,0,1-6.6.73,6,6,0,0,1-2.29-.61c-1.77-.82-3.52-1.7-5.22-2.66a4.31,4.31,0,0,1-1.57-1.52,38.18,38.18,0,0,1-2.43-4.77,14.76,14.76,0,0,1-.54-3l.15,0h0Zm17.59,8.76c.79-.82.76-.9,0-1.52a6.12,6.12,0,0,1-.84-1.06c-.47-.63.27-.81.42-1.21A4.42,4.42,0,0,0,29,26.14c-.32,0-.63,0-.95,0-.78,0-1.57.08-2.35.15-.29,0-.8.08-.81.18A2.13,2.13,0,0,0,25,27.56a5.92,5.92,0,0,0,.67.91c.33.48.33.87-.23,1.22s-1.07.82-1.68,1.3c1.89,1.22,2.53-.61,3.65-1.25l1.94,1.5h0ZM35.61,20a11.38,11.38,0,0,0-2,.25,4.8,4.8,0,0,0-2.72,1.42c-.48.62-.62,1.47-.26,1.86a1.54,1.54,0,0,0,2.18.13l.1-.09a6.08,6.08,0,0,1,3.4-1.73c.58-.09.76-.43.73-1-.08-1-.77-.83-1.4-.83Zm-13.36,3.5c.36-.21,1-.36,1.08-.67a2.07,2.07,0,0,0-2-2.49,6.38,6.38,0,0,1-1-.09c-.79-.13-1.59-.34-2.39-.39-1.05-.07-1.34.45-.77,1.35a1.93,1.93,0,0,0,.82.62c.87.41,1.75.79,2.64,1.15.46.19,1,.31,1.61.52Z"/><path class="cls-2" d="M41.68,24.57c-1.24,3.55-2.81,6.77-6.43,8.69-1.42.75-2.87,1.54-4.32,2.32a10,10,0,0,1-4.29.93,15.45,15.45,0,0,1-7.78-1.66C16.1,33.56,13.7,32,12.37,29.13a16.63,16.63,0,0,1-1.91-6.26c-.06-2.33.3-4.68-.42-7-.33-1.05-.51-2.2-.94-3.23a2.1,2.1,0,0,0-1.25-1c-1.37-.41-2,1.27-1.63,2.65.4-.24.76-.48,1.12-.69a1.36,1.36,0,0,1,.48-.16,1.25,1.25,0,0,1,1.4,1.07,15.63,15.63,0,0,1,0,2.56c-.09,1.16-.73,1.42-1.71.76a1.74,1.74,0,0,1-.45-.36c-.37-.57-.72-1.15-1.23-2h0c0,.5,0,.77,0,1a29.34,29.34,0,0,0,1,8.24c.9,3.95,2.5,7.5,5.9,10l.06.06a11.63,11.63,0,0,0,5.61,2.81c.79.12,1.58.23,2.36.41,2.34.54,4.65,1.32,7.11,1a6.52,6.52,0,0,0,1.85-.31c1.76-.82,3.48-1.74,5.2-2.64a3.8,3.8,0,0,0,.74-.52,19,19,0,0,0,6.07-8.09,6.78,6.78,0,0,0,.2-4.29C41.8,23.62,41.83,24.13,41.68,24.57Z"/><path class="cls-2" d="M40.08,15.39a11,11,0,0,1-1.15-.15,4.17,4.17,0,0,1-1.07-.39C36,13.84,34,14,32,13.76c-6.08-.79-11.74.64-17.2,3.18-1,.46-2.06.87-3.15,1.33a5.19,5.19,0,0,1-.38-2.81c0-.15.19-.36.14-.45-.53-.93.24-1.28.78-1.57C15.4,11.7,18.6,9.9,22.33,9.49A21,21,0,0,0,24.5,9a3.83,3.83,0,0,1,.89-.13c3.07.23,6.16.43,9.2.73,2.15.2,3.84,1.59,5.73,2.45.15.08.23.51.2.75-.1.81-.27,1.58-.45,2.57Z"/><path d="M41.51,15.7c.09,1.14.18,2.39.27,3.62-.9-1.18-1.62-2.39-.27-3.62Z"/><path class="cls-3" d="M29.39,31.24l-1.93-1.48c-1.11.64-1.76,2.47-3.65,1.24.61-.48,1.12-.93,1.68-1.29a.74.74,0,0,0,.23-1.22,5.67,5.67,0,0,1-.69-.92,2.1,2.1,0,0,1-.13-1.08c0-.11.52-.17.81-.19.78-.07,1.57-.11,2.35-.15h1A4.79,4.79,0,0,1,29,27.46c-.14.4-.89.58-.42,1.21a5.73,5.73,0,0,0,.85,1.06c.76.62.79.7,0,1.52Z"/><path class="cls-4" d="M35.61,20c.63,0,1.32-.14,1.39.84,0,.57-.14.91-.73,1a6.28,6.28,0,0,0-3.4,1.73,1.55,1.55,0,0,1-2.18.07l-.1-.1a1.6,1.6,0,0,1,.26-1.87,4.87,4.87,0,0,1,2.71-1.42,11.82,11.82,0,0,1,2-.24h0Z"/><path class="cls-5" d="M22.25,23.52c-.65-.21-1.15-.33-1.62-.52-.89-.36-1.77-.72-2.64-1.15a2,2,0,0,1-.83-.62c-.56-.9-.28-1.42.77-1.35.81.05,1.6.26,2.4.39a5.31,5.31,0,0,0,1,.09,2.08,2.08,0,0,1,2,2.49c-.09.31-.71.46-1.07.67Z"/></svg>