<svg xmlns="http://www.w3.org/2000/svg">
  <defs>
    <symbol id="email" viewBox="0 0 512 512">
      <path d="M64 112c-8.8 0-16 7.2-16 16v22.1L220.5 291.7c20.7 17 50.4 17 71.1 0L464 150.1V128c0-8.8-7.2-16-16-16H64zM48 212.2V384c0 8.8 7.2 16 16 16H448c8.8 0 16-7.2 16-16V212.2L322 328.8c-38.4 31.5-93.7 31.5-132 0L48 212.2zM0 128C0 92.7 28.7 64 64 64H448c35.3 0 64 28.7 64 64V384c0 35.3-28.7 64-64 64H64c-35.3 0-64-28.7-64-64V128z"/>
    </symbol>
    <symbol id="github" viewBox="0 0 496 512">
      <path d="M165.9 397.4c0 2-2.3 3.6-5.2 3.6-3.3 .3-5.6-1.3-5.6-3.6 0-2 2.3-3.6 5.2-3.6 3-.3 5.6 1.3 5.6 3.6zm-31.1-4.5c-.7 2 1.3 4.3 4.3 4.9 2.6 1 5.6 0 6.2-2s-1.3-4.3-4.3-5.2c-2.6-.7-5.5 .3-6.2 2.3zm44.2-1.7c-2.9 .7-4.9 2.6-4.6 4.9 .3 2 2.9 3.3 5.9 2.6 2.9-.7 4.9-2.6 4.6-4.6-.3-1.9-3-3.2-5.9-2.9zM244.8 8C106.1 8 0 113.3 0 252c0 110.9 69.8 205.8 169.5 239.2 12.8 2.3 17.3-5.6 17.3-12.1 0-6.2-.3-40.4-.3-61.4 0 0-70 15-84.7-29.8 0 0-11.4-29.1-27.8-36.6 0 0-22.9-15.7 1.6-15.4 0 0 24.9 2 38.6 25.8 21.9 38.6 58.6 27.5 72.9 20.9 2.3-16 8.8-27.1 16-33.7-55.9-6.2-112.3-14.3-112.3-110.5 0-27.5 7.6-41.3 23.6-58.9-2.6-6.5-11.1-33.3 2.6-67.9 20.9-6.5 69 27 69 27 20-5.6 41.5-8.5 62.8-8.5s42.8 2.9 62.8 8.5c0 0 48.1-33.6 69-27 13.7 34.7 5.2 61.4 2.6 67.9 16 17.7 25.8 31.5 25.8 58.9 0 96.5-58.9 104.2-114.8 110.5 9.2 7.9 17 22.9 17 46.4 0 33.7-.3 75.4-.3 83.6 0 6.5 4.6 14.4 17.3 12.1C428.2 457.8 496 362.9 496 252 496 113.3 383.5 8 244.8 8zM97.2 352.9c-1.3 1-1 3.3 .7 5.2 1.6 1.6 3.9 2.3 5.2 1 1.3-1 1-3.3-.7-5.2-1.6-1.6-3.9-2.3-5.2-1zm-10.8-8.1c-.7 1.3 .3 2.9 2.3 3.9 1.6 1 3.6 .7 4.3-.7 .7-1.3-.3-2.9-2.3-3.9-2-.6-3.6-.3-4.3 .7zm32.4 35.6c-1.6 1.3-1 4.3 1.3 6.2 2.3 2.3 5.2 2.6 6.5 1 1.3-1.3 .7-4.3-1.3-6.2-2.2-2.3-5.2-2.6-6.5-1zm-11.4-14.7c-1.6 1-1.6 3.6 0 5.9 1.6 2.3 4.3 3.3 5.6 2.3 1.6-1.3 1.6-3.9 0-6.2-1.4-2.3-4-3.3-5.6-2z"/>
    </symbol>
    <symbol id="linkedin" viewBox="0 0 448 512">
      <path d="M416 32H31.9C14.3 32 0 46.5 0 64.3v383.4C0 465.5 14.3 480 31.9 480H416c17.6 0 32-14.5 32-32.3V64.3c0-17.8-14.4-32.3-32-32.3zM135.4 416H69V202.2h66.5V416zm-33.2-243c-21.3 0-38.5-17.3-38.5-38.5S80.9 96 102.2 96c21.2 0 38.5 17.3 38.5 38.5 0 21.3-17.2 38.5-38.5 38.5zm282.1 243h-66.4V312c0-24.8-.5-56.7-34.5-56.7-34.6 0-39.9 27-39.9 54.9V416h-66.4V202.2h63.7v29.2h.9c8.9-16.8 30.6-34.5 62.9-34.5 67.2 0 79.7 44.3 79.7 101.9V416z"/>
    </symbol>
    <symbol id="twitter-x" viewBox="0 0 512 512">
      <path d="M389.2 48h70.6L305.6 224.2 487 464H345L233.7 318.6 106.5 464H35.8L200.7 275.5 26.8 48H172.4L272.9 180.9 389.2 48zM364.4 421.8h39.1L151.1 88h-42L364.4 421.8z"/>
    </symbol>
        <symbol id="muse" viewBox="0 0 45 18">
      <path d="M1.47 9.22V1h2.82v1.54h.07A2.39 2.39 0 016.72.87a2.44 2.44 0 011.5.45A1.86 1.86 0 019 2.53h.09A2.14 2.14 0 0110 1.32a2.81 2.81 0 011.59-.46 2.58 2.58 0 011.93.76 2.81 2.81 0 01.74 2v5.59h-3v-4.8a1.24 1.24 0 00-.26-.85.92.92 0 00-.74-.31.92.92 0 00-.72.31 1.23 1.23 0 00-.26.85v4.81H6.41V4.41a1.24 1.24 0 00-.27-.85 1 1 0 00-.74-.31.87.87 0 00-.52.14.94.94 0 00-.34.4 1.32 1.32 0 00-.12.62v4.81zM21.4 5.61V1h3v8.22h-2.81V7.64h-.08a2.35 2.35 0 01-1 1.24 3.07 3.07 0 01-3.1 0 2.69 2.69 0 01-1-1.09 3.71 3.71 0 01-.37-1.6V1h3v4.61a1.34 1.34 0 00.31.94 1.09 1.09 0 00.87.35 1.22 1.22 0 00.64-.16 1.14 1.14 0 00.42-.45 1.59 1.59 0 00.12-.68zm12.43-1.95H31.1a.66.66 0 00-.17-.44 1 1 0 00-.4-.27 1.45 1.45 0 00-.53-.11 1.66 1.66 0 00-.66.14.44.44 0 00-.26.4.46.46 0 00.16.34 1.28 1.28 0 00.63.24l1.67.3a3.77 3.77 0 011.88.74A1.84 1.84 0 0134 6.49 2.34 2.34 0 0133.52 8a3.29 3.29 0 01-1.41 1 5.63 5.63 0 01-2 .35 5 5 0 01-2.95-.76 2.76 2.76 0 01-1.2-2h2.95a.82.82 0 00.39.61 1.46 1.46 0 00.82.21 1.43 1.43 0 00.68-.14.42.42 0 00.2-.6.39.39 0 00-.21-.21 2 2 0 00-.71-.23L28.59 6a3.58 3.58 0 01-1.89-.84 2.19 2.19 0 01-.62-1.59 2.42 2.42 0 01.45-1.45 2.85 2.85 0 011.32-.95 6.07 6.07 0 012-.32 4.78 4.78 0 012.82.75 2.49 2.49 0 011.16 2.06zm5.65 5.7a4.76 4.76 0 01-2.28-.51 3.63 3.63 0 01-1.48-1.45 4.67 4.67 0 01-.49-2.32 4.4 4.4 0 01.49-2.19 3.59 3.59 0 011.45-1.49 4.35 4.35 0 012.21-.53 4.63 4.63 0 011.69.29 3.48 3.48 0 011.29.84 3.75 3.75 0 01.89 1.33 5.27 5.27 0 01.28 1.76v.69h-7.38V4.14h4.63a1.15 1.15 0 00-.18-.62 1.07 1.07 0 00-.47-.42 1.27 1.27 0 00-.66-.16 1.4 1.4 0 00-.66.16 1.11 1.11 0 00-.66 1v1.8a1.45 1.45 0 00.16.71 1.25 1.25 0 00.48.49 1.5 1.5 0 00.75.17 1.7 1.7 0 00.55-.08 1.66 1.66 0 00.45-.25 1 1 0 00.26-.4h2.7A3 3 0 0142.84 8a3.24 3.24 0 01-1.37 1 5.23 5.23 0 01-1.99.36zM3 15.2c1.21 0 1.88.27 1.88.89s-.94 1.06-3 1.06v-.77c1.75 0 2.13-.13 2.13-.31s-.85-.29-1.28-.29l-.52-.42.29-.76a.76.76 0 01-.5-.76c0-.65.47-1 1.37-1a2.6 2.6 0 01.56.06l.15-.51h.83l-.53.73a.85.85 0 01.24.62c0 .64-.47.94-1.37.94h-.2zm-.27-1.43c0 .22.14.32.53.32s.52-.1.52-.32-.14-.32-.52-.32-.5.11-.5.32zm6.18-.06a1.82 1.82 0 00-1.2.32v1.22H8.8V16H6.14v-.75h.72v-1.63h-.51v-.73h1.21l.1.56a1.56 1.56 0 011.25-.68zm1.43.79c0-1.07.54-1.7 1.48-1.7a1.32 1.32 0 011.39 1.25 1 1 0 010 .25c0 1.08-.55 1.72-1.48 1.72a1.34 1.34 0 01-1.39-1.26 1.13 1.13 0 010-.26zm2-.09c0-.63-.16-.84-.56-.84s-.56.21-.56.84.15.82.56.82.56-.17.56-.79zm4.14-1.52h.85V16h-.7l-.08-.43a1.17 1.17 0 01-.94.48.92.92 0 01-.94-.93v-2.23h.85v2c0 .33.11.47.41.47a.7.7 0 00.58-.3zm5.21 1.53c0 1-.42 1.63-1.14 1.63a.93.93 0 01-.85-.48v1.5h-.84v-4.18h.7l.09.53a1 1 0 01.9-.59c.72 0 1.14.59 1.14 1.59zm-.88.05c0-.64-.14-.87-.55-.87s-.56.22-.56.82.16.85.56.85.55-.2.55-.77zm3.27-2.65h.74v5.25h-.74zM30.13 16h-.82l-.07-.43a1.16 1.16 0 01-1 .48.82.82 0 01-.94-.89c0-.74.56-1.17 1.88-1.18 0-.31-.21-.43-.57-.43a2.18 2.18 0 00-.94.24v-.73a4 4 0 011.18-.23 1.1 1.1 0 011.23.92v1.45zm-.94-1.27v-.23c-.73 0-1 .17-1 .47s.11.31.4.31a.54.54 0 00.53-.55zm2.46.27a2.89 2.89 0 001.13.23c.41 0 .52-.08.52-.2 0-.45-1.67-.12-1.67-1.25 0-.65.51-1 1.29-1a3.71 3.71 0 011.14.21v.77a3.31 3.31 0 00-1.12-.2c-.34 0-.44.09-.44.2 0 .46 1.67.11 1.67 1.26 0 .64-.53.94-1.34.94a3 3 0 01-1.18-.26zm6.08.25h.81V16h-2.69v-.75h1v-1.63h-.83v-.73h1.68zm0-3.72v1h-.94v-1zM42.82 16H42l-.08-.43a1.13 1.13 0 01-1 .48.82.82 0 01-.94-.89c0-.74.57-1.17 1.89-1.18 0-.31-.21-.43-.58-.43a2.18 2.18 0 00-.94.24v-.73a4 4 0 011.19-.23 1.08 1.08 0 011.21.91 1.48 1.48 0 010 .21v1.25zm-1-1.27v-.23c-.74 0-1 .17-1 .47s.11.31.39.31a.56.56 0 00.61-.5z" />
    </symbol>
   
</defs>
</svg>