<svg xmlns="http://www.w3.org/2000/svg">
  <defs>
    <!-- menu -->
    <symbol id="menu" viewBox="0 0 24 24" fill="none" strokeLinecap="round" strokeLinejoin="round"
      strokeWidth="1.5">
      <path d="M3 12h18" />
      <path d="M3 6h18" />
      <path d="M3 18h18" />
    </symbol>
    <!-- pencil -->
    <symbol id="pencil" viewBox="0 0 256 256">
      <path fill="currentColor"
        d="M200.12 55.87A102 102 0 1 0 55.88 200.12A102 102 0 1 0 200.12 55.87M106 134h44l14.1 30.56A30 30 0 0 0 128 174a30 30 0 0 0-36.11-9.46Zm5.54-12L128 86.32L144.47 122ZM134 192a18 18 0 0 1 36 0v15.64a89.3 89.3 0 0 1-36 10.14Zm-48 0a18 18 0 0 1 36 0v25.78a89.3 89.3 0 0 1-36-10.14Zm105.64-.36A93 93 0 0 1 182 200v-24a6 6 0 0 0-.55-2.51l-48-104a6 6 0 0 0-10.9 0l-48 104A6 6 0 0 0 74 176v24a93 93 0 0 1-9.64-8.37a90 90 0 1 1 127.28 0Z" />
    </symbol>
    <!-- heart-filled -->
    <symbol id="heart-fill" viewBox="0 0 256 256">
      <path fill="currentColor"
        d="M240 102c0 70-103.79 126.66-108.21 129a8 8 0 0 1-7.58 0C119.79 228.66 16 172 16 102a62.07 62.07 0 0 1 62-62c20.65 0 38.73 8.88 50 23.89C139.27 48.88 157.35 40 178 40a62.07 62.07 0 0 1 62 62" />
    </symbol>

    <!-- heart-empty -->
    <symbol id="heart" viewBox="0 0 256 256">
      <path fill="currentColor"
        d="M178 40c-20.65 0-38.73 8.88-50 23.89C116.73 48.88 98.65 40 78 40a62.07 62.07 0 0 0-62 62c0 70 103.79 126.66 108.21 129a8 8 0 0 0 7.58 0C136.21 228.66 240 172 240 102a62.07 62.07 0 0 0-62-62m-50 174.8c-18.26-10.64-96-59.11-96-112.8a46.06 46.06 0 0 1 46-46c19.45 0 35.78 10.36 42.6 27a8 8 0 0 0 14.8 0c6.82-16.67 23.15-27 42.6-27a46.06 46.06 0 0 1 46 46c0 53.61-77.76 102.15-96 112.8" />
    </symbol>
    <!-- reply -->
    <symbol id="reply" viewBox="0 0 24 24">
      <path fill="currentColor"
        d="M9 16h7.2l-2.6 2.6L15 20l5-5l-5-5l-1.4 1.4l2.6 2.6H9c-2.2 0-4-1.8-4-4s1.8-4 4-4h2V4H9c-3.3 0-6 2.7-6 6s2.7 6 6 6" />
    </symbol>


    <!-- trash -->
    <symbol id="trash" viewBox="0 0 256 256">
      <path fill="currentColor"
        d="M216 50h-42V40a22 22 0 0 0-22-22h-48a22 22 0 0 0-22 22v10H40a6 6 0 0 0 0 12h10v146a14 14 0 0 0 14 14h128a14 14 0 0 0 14-14V62h10a6 6 0 0 0 0-12M94 40a10 10 0 0 1 10-10h48a10 10 0 0 1 10 10v10H94Zm100 168a2 2 0 0 1-2 2H64a2 2 0 0 1-2-2V62h132Zm-84-104v64a6 6 0 0 1-12 0v-64a6 6 0 0 1 12 0m48 0v64a6 6 0 0 1-12 0v-64a6 6 0 0 1 12 0" />
    </symbol>

    <!-- x -->
    <symbol id="x" viewBox="0 0 24 24" fill="none" strokeLinecap="round" strokeLinejoin="round"
      strokeWidth="1.5">
      <path d="M18 6L6 18" />
      <path d="M6 6l12 12" />
    </symbol>

    <!-- search -->
    <symbol id="search" viewBox="0 0 24 24" fill="none" strokeLinecap="round" strokeLinejoin="round"
      strokeWidth="1.5">
      <path d="M11 17.25a6.25 6.25 0 110-12.5 6.25 6.25 0 010 12.5z" />
      <path d="M16 16l4.5 4.5" />
    </symbol>

    <!-- rss -->
    <symbol id="rss" viewBox="0 0 24 24" fill="none" strokeLinecap="round" strokeLinejoin="round"
      strokeWidth="1.5">
      <path d="M4 11a9 9 0 019 9" />
      <path d="M4 4a16 16 0 0116 16" />
      <circle cx="5" cy="19" r="1" />
    </symbol>

    <!-- sun -->
    <symbol id="sun" viewBox="0 0 24 24" fill="none" strokeLinecap="round" strokeLinejoin="round"
      strokeWidth="1.5">
      <circle cx="12" cy="12" r="5" />
      <path d="M12 1v2" />
      <path d="M12 21v2" />
      <path d="M4.22 4.22l1.42 1.42" />
      <path d="M18.36 18.36l1.42 1.42" />
      <path d="M1 12h2" />
      <path d="M21 12h2" />
      <path d="M4.22 19.78l1.42-1.42" />
      <path d="M18.36 5.64l1.42-1.42" />
    </symbol>

    <!-- moon -->
    <symbol id="moon" viewBox="0 0 24 24" fill="none" strokeLinecap="round" strokeLinejoin="round"
      strokeWidth="1.5">
      <path d="M21 12.79A9 9 0 1111.21 3 7 7 0 0021 12.79z" />
    </symbol>

    <!-- square -->
    <symbol id="square" viewBox="0 0 448 512">
      <path
        d="M384 80c8.8 0 16 7.2 16 16V416c0 8.8-7.2 16-16 16H64c-8.8 0-16-7.2-16-16V96c0-8.8 7.2-16 16-16H384zM64 32C28.7 32 0 60.7 0 96V416c0 35.3 28.7 64 64 64H384c35.3 0 64-28.7 64-64V96c0-35.3-28.7-64-64-64H64z" />
    </symbol>

    <!-- square-check -->
    <symbol id="square-check" viewBox="0 0 448 512">
      <path
        d="M64 32C28.7 32 0 60.7 0 96V416c0 35.3 28.7 64 64 64H384c35.3 0 64-28.7 64-64V96c0-35.3-28.7-64-64-64H64zM337 209L209 337c-9.4 9.4-24.6 9.4-33.9 0l-64-64c-9.4-9.4-9.4-24.6 0-33.9s24.6-9.4 33.9 0l47 47L303 175c9.4-9.4 24.6-9.4 33.9 0s9.4 24.6 0 33.9z" />
    </symbol>

    <!-- calendar -->
    <symbol id="calendar" fill="none" strokeLinecap="round" strokeLinejoin="round" strokeWidth="1.5"
      viewBox="0 0 24 24">
      <rect x="3" y="4" width="18" height="18" rx="2" ry="2" />
      <path d="M16 2v4" />
      <path d="M8 2v4" />
      <path d="M3 10h18" />
    </symbol>

    <!-- book-open -->
    <symbol id="book-open" fill="none" strokeLinecap="round" strokeLinejoin="round"
      strokeWidth="1.5" viewBox="0 0 24 24">
      <path d="M2 3h6a4 4 0 014 4v14a3 3 0 00-3-3H2z" />
      <path d="M22 3h-6a4 4 0 00-4 4v14a3 3 0 013-3h7z" />
    </symbol>

    <!-- arrow-right -->
    <symbol id="arrow-right" fill="none" strokeLinecap="round" strokeLinejoin="round"
      strokeWidth="1.5" viewBox="0 0 24 24">
      <path d="M5 12h14" />
      <path d="M12 5l7 7-7 7" />
    </symbol>
    <!-- arrow-right-2 -->

    <symbol id="arrow-right-2" viewBox="0 0 24 24">
      <path
        d="M4.286 12c0-0.533 0.432-0.964 0.964-0.964v0h11.172l-4.14-4.138c-0.175-0.175-0.283-0.416-0.283-0.683 0-0.533 0.432-0.965 0.965-0.965 0.267 0 0.508 0.108 0.683 0.283v0l5.785 5.785c0.175 0.175 0.283 0.416 0.283 0.683s-0.108 0.508-0.283 0.683l-5.785 5.785c-0.175 0.175-0.416 0.283-0.683 0.283-0.533 0-0.965-0.432-0.965-0.965 0-0.267 0.108-0.508 0.283-0.683v0l4.14-4.138h-11.172c-0.533 0-0.964-0.432-0.964-0.964v0z"
      ></path>
    </symbol>
        <!-- twitter -->

    <symbol id="twitter" width="24" height="24" viewBox="0 0 24 24" fill="none" stroke="currentColor" stroke-width="2" stroke-linecap="round" stroke-linejoin="round" class="lucide lucide-twitter"><path d="M22 4s-.7 2.1-2 3.4c1.6 10-9.4 17.3-18 11.6 2.2.1 4.4-.6 6-2C3 15.5.5 9.6 3 5c2.2 2.6 5.6 4.1 9 4-.9-4.2 4-6.6 7-3.8 1.1 0 3-1.2 3-1.2z"/></symbol>

    <!-- globe -->
    <symbol id="globe" viewBox="0 0 16 16">
      <path fill-rule="evenodd" clip-rule="evenodd"
        d="M10.268 14.0934C11.9051 13.4838 13.2303 12.2333 13.9384 10.6469C13.1192 10.7941 12.2138 10.9111 11.2469 10.9925C11.0336 12.2005 10.695 13.2621 10.268 14.0934ZM8 16C12.4183 16 16 12.4183 16 8C16 3.58172 12.4183 0 8 0C3.58172 0 0 3.58172 0 8C0 12.4183 3.58172 16 8 16ZM8.48347 14.4823C8.32384 14.494 8.16262 14.5 8 14.5C7.83738 14.5 7.67616 14.494 7.51654 14.4823C7.5132 14.4791 7.50984 14.4759 7.50647 14.4726C7.2415 14.2165 6.94578 13.7854 6.67032 13.1558C6.41594 12.5744 6.19979 11.8714 6.04101 11.0778C6.67605 11.1088 7.33104 11.125 8 11.125C8.66896 11.125 9.32395 11.1088 9.95899 11.0778C9.80021 11.8714 9.58406 12.5744 9.32968 13.1558C9.05422 13.7854 8.7585 14.2165 8.49353 14.4726C8.49016 14.4759 8.4868 14.4791 8.48347 14.4823ZM11.4187 9.72246C12.5137 9.62096 13.5116 9.47245 14.3724 9.28806C14.4561 8.87172 14.5 8.44099 14.5 8C14.5 7.55901 14.4561 7.12828 14.3724 6.71194C13.5116 6.52755 12.5137 6.37904 11.4187 6.27753C11.4719 6.83232 11.5 7.40867 11.5 8C11.5 8.59133 11.4719 9.16768 11.4187 9.72246ZM10.1525 6.18401C10.2157 6.75982 10.25 7.36805 10.25 8C10.25 8.63195 10.2157 9.24018 10.1525 9.81598C9.46123 9.85455 8.7409 9.875 8 9.875C7.25909 9.875 6.53877 9.85455 5.84749 9.81598C5.7843 9.24018 5.75 8.63195 5.75 8C5.75 7.36805 5.7843 6.75982 5.84749 6.18401C6.53877 6.14545 7.25909 6.125 8 6.125C8.74091 6.125 9.46123 6.14545 10.1525 6.18401ZM11.2469 5.00748C12.2138 5.08891 13.1191 5.20593 13.9384 5.35306C13.2303 3.7667 11.9051 2.51622 10.268 1.90662C10.695 2.73788 11.0336 3.79953 11.2469 5.00748ZM8.48347 1.51771C8.4868 1.52089 8.49016 1.52411 8.49353 1.52737C8.7585 1.78353 9.05422 2.21456 9.32968 2.84417C9.58406 3.42562 9.80021 4.12856 9.95899 4.92219C9.32395 4.89118 8.66896 4.875 8 4.875C7.33104 4.875 6.67605 4.89118 6.04101 4.92219C6.19978 4.12856 6.41594 3.42562 6.67032 2.84417C6.94578 2.21456 7.2415 1.78353 7.50647 1.52737C7.50984 1.52411 7.51319 1.52089 7.51653 1.51771C7.67615 1.50597 7.83738 1.5 8 1.5C8.16262 1.5 8.32384 1.50597 8.48347 1.51771ZM5.73202 1.90663C4.0949 2.51622 2.76975 3.7667 2.06159 5.35306C2.88085 5.20593 3.78617 5.08891 4.75309 5.00748C4.96639 3.79953 5.30497 2.73788 5.73202 1.90663ZM4.58133 6.27753C3.48633 6.37904 2.48837 6.52755 1.62761 6.71194C1.54392 7.12828 1.5 7.55901 1.5 8C1.5 8.44099 1.54392 8.87172 1.62761 9.28806C2.48837 9.47245 3.48633 9.62096 4.58133 9.72246C4.52807 9.16768 4.5 8.59133 4.5 8C4.5 7.40867 4.52807 6.83232 4.58133 6.27753ZM4.75309 10.9925C3.78617 10.9111 2.88085 10.7941 2.06159 10.6469C2.76975 12.2333 4.0949 13.4838 5.73202 14.0934C5.30497 13.2621 4.96639 12.2005 4.75309 10.9925Z" />
    </symbol>

    <!-- link -->
    <symbol id="link" viewBox="0 0 16 16">
      <path
        d="M8.46968 1.46968C10.1433 -0.203925 12.8567 -0.203923 14.5303 1.46968C16.2039 3.14329 16.2039 5.85674 14.5303 7.53034L12.0303 10.0303L10.9697 8.96968L13.4697 6.46968C14.5575 5.38186 14.5575 3.61816 13.4697 2.53034C12.3819 1.44252 10.6182 1.44252 9.53034 2.53034L7.03034 5.03034L5.96968 3.96968L8.46968 1.46968ZM11.5303 5.53034L5.53034 11.5303L4.46968 10.4697L10.4697 4.46968L11.5303 5.53034ZM1.46968 14.5303C3.14329 16.2039 5.85673 16.204 7.53034 14.5303L10.0303 12.0303L8.96968 10.9697L6.46968 13.4697C5.38186 14.5575 3.61816 14.5575 2.53034 13.4697C1.44252 12.3819 1.44252 10.6182 2.53034 9.53034L5.03034 7.03034L3.96968 5.96968L1.46968 8.46968C-0.203923 10.1433 -0.203925 12.8567 1.46968 14.5303Z" />
    </symbol>
    <!-- link -->
    <symbol id="kitteh" viewBox="0 0 120 120">
      <path
        d="M119.9 108c-.1 0-.1 0-.2.1s-.2.1-.4.1-.3-.1-.4 0v-.1c.1-.2-.1-.3-1-.3-.5 0-.8-.1-.9-.2-.1-.1-.2-.1-.1 0v.1c-.1 0-.1-.1-.1-.1 0-.1-.1-.1-.2.1-.1.1-.2.1-.3.1-.1-.1-.3-.1-.6 0-.4.1-.5.1-.6 0-.1-.1-.1-.1 0 0s.1.1-.1 0c-.1-.1-.2-.1-.3-.1 0 0-.1 0-.1-.1s0-.1-.1-.2-.1 0 0 0c.1.2-.1.2-.2 0 0-.1-.1-.1-.2 0-.1 0-.1 0 0-.1 0-.1.1-.1.2-.1s.1 0 0-.1c-.1-.2-.4-.1-.7.2-.2.3-.7.3-.9 0-.1-.1-.1-.1-.3.1-.1.1-.2.2-.2.1s0-.1-.1 0c-.2.2-1 .3-1 .2 0 0-.1-.2-.2-.2-.2-.1-.2-.2-.2-.4s0-.3-.1-.3-.1.1-.1.1c.1.1-.2.3-.4.3-.1 0-.1 0-.1.1s0 .1-.1 0-.1-.1-.1 0-.3.1-1 .1c-1 0-1.4-.1-1.3-.2 0-.1 0-.1-.1-.1s-.2 0-.2.1-.7.1-.7 0c-.1-.1-.1-.1-.2 0s-.1.1-.1 0-.6-.2-.7-.1c-.1.1-.7 0-.8-.1 0-.1-.1-.1-.2 0s-.2.1-.1 0c0-.1 0-.1-.1 0-.1.2-.2.2-.2-.1 0 0-.1-.1-.3-.1-.2 0-.3.1-.3.2s0 .1-.1.1c0-.1-.2-.2-.4-.3-.3-.1-.4-.1-.6 0-.1.1-.2.1-.2.1.1 0 0 .1 0 .1-.1.1-.2.1-.4-.2-.1-.1-.1-.2-.2-.3l.1-.1c.1-.1.2-.1.3-.1.1 0 .1 0 0-.1s-.2-.1-.2-.1c-.1.1-.2-.2-.1-.4.1-.1.1-.1.1 0 .1.2.5 0 .5-.2s0-.2.2.1c.2.2.2.3.3.1 0-.1.1-.2.2-.2s.1.1.1.1c0 .1 0 .1.1 0 .2-.2.6-.3.4-.1v.1c.1-.1.1-.1.1-.2s.1-.1.3-.2c.1 0 .3-.1.2-.2 0-.1 0-.1.2.1s.2.2.2 0c0-.1.1-.3.2-.3.1-.1.2-.1.2 0s.1.1.2.1.2 0 .2-.1.1-.1.3-.1c.2 0 .3 0 .3-.1s0-.1.1 0c0 .1.1.1.3 0 .1-.1.2-.1.1-.2 0-.1 0-.1.1-.1s.2 0 .1-.1v-.1c.2 0 .3 0 .3-.2 0-.1 0-.2.1-.2s.1 0 .1.1 0 .1.1.1.1-.1.1-.2 0-.2.1-.2 0-.1-.2 0c-.3 0-.3 0-.2-.1.1-.1.1-.3.2-.5 0-.3 0-.4-.2-.3-.1 0-.3.1-.4.2-.1.1-.1 0 0-.1 0-.2 0-.3-.1-.3-.2 0-.5.3-.4.4 0 .1 0 .1-.1 0-.1 0-.1-.1-.1-.2s-.2-.4-.4-.4c0 0-.1 0 0-.1 0-.1 0-.1-.1 0-.1 0-.1.1 0 .2 0 .1.1.3 0 .4 0 .2-.1.3-.1.2 0-.1-.1-.1-.1-.1s-.1 0-.2-.1c0-.1-.1-.1-.2-.1s-.2 0-.3-.1c-.1-.2-.1-.2-.1 0 0 .1 0 .2-.1.2s-.1.1-.1.2 0 .2-.1.2-.1-.1 0-.2c0 0 0-.1-.1-.1-.2-.1-.3.2-.2.4 0 .1-.1.1-.2 0-.2 0-.3 0-.3.1 0 .2-.2.4-.4.3-.1 0-.1 0-.1.1s-.1.2-.2.1h-.2c0 .2 0 .3-.3.4-.1 0-.3.2-.4.3-.1.1-.2.2-.3.2-.1 0-.3.1-.4.2-.2.2-.3.2-.5.1s-.5-.1-.4 0c0 .1 0 .1-.1.2-.1 0-.1.2-.1.3s0 .2.1.1c.1 0 .1 0 0 .1 0 .1-.1.1-.1.1h-.3c-.1.1-.2.1-.1.1s.1.1.1.2-.1.1-.3.1h-.5c-.1.1-.2.1-.2 0s-.4-.1-.6.1c-.1.1-.4.2-.7.4-.3.1-.5.3-.5.3 0 .1-.1.1-.1.1-.1 0-.3.1-.6.2-.2.1-.5.2-.6.3-.1 0-.2.1-.2.2 0 .2-.5.4-.6.3-.1 0-.2 0-.3.1-.1.1-.4.1-.6.2-.2 0-.5.1-.7.2-.1.1-.6.1-1 .1s-.9.1-1.2.2c-.2.1-.6.1-.9.2-.3 0-.5.1-.6.1-.1.1-.4.1-.7.2h-.3c-.5.5-1.1.9-1.8 1.2-.1.1-.2.1-.3.2-.2.1-.3.2-.3.2s-.2 0-.4-.1c-.2 0-.3.1-.5.1-.1 0-.2.1-.2.2-.1.2-.3.2-.4.1-.2-.1-.6-.1-.8.1-.1.1-.2.1-.4.1H83c-.1.1-.8.3-1.2.4-.1 0-.3.1-.3.1-.1 0-.3.1-.5.1s-.4.1-.4.1l-.1.1c-.1 0-.3 0-.5.1-.2 0-.3 0-.3-.1s-.1-.1-.2 0-.3.1-.5-.1c-.4-.2-1-.2-1 0 0 .1-.1 0-.2-.1-.2-.3-.6-.3-.6-.1 0 .1-.1.1-.1 0H77c0 .1-.3.5-.6.6h-.5c-.1-.1-.2-.1-.2 0s0 .1-.1.2h-.1c0-.1-.1 0-.4.1-.3.1-.5.2-.5.2l-.4.2c-.2.2-.5.2-.6.2h-.5c-.2.1-.3.1-.2.3 0 .4-.3.8-.7.8-.2 0-.4.1-.6.1-.3.1-.5.2-1.6.3-.3 0-.7.2-.9.3-.1.1-.4.2-.5.2-.2 0-.3.1-.3.2 0 .3-.3.1-.5-.2-.3-.7.1-2 .8-2.4.1-.1 1.2-.4 2.3-.7 2.5-.7 4.8-1.7 4.8-2 0-.1-.1-.1-.2-.1-.1.1-.2 0-.2-.3 0-.2-.1-.4-.2-.5l-.1-.1c.2 0 .2-.2 0-.2-.1 0-.2-.1-.2-.3-.1-.4-.4-1.2-.5-1.2 0 0-.1 0 0-.1v-.5c-.1-.4-.1-.4.1-.2s.2.2.1-.2c0-.2-.1-.5-.1-.5 0-.1-.1-.2-.1-.3 0 0-.1 0 0 .2v.2c-.1 0-.1-.2-.1-.4s0-.5-.1-.6v-.1c0 .1.1.1.2.1s0-.1-.1-.2c-.2-.1-.2-.2-.1-.3.1-.1.2-.6 0-.6-.1 0-.1.1-.1.2 0 .2 0 .2-.1 0-.1-.3-.1-.8 0-.7.1 0 .1 0 .1-.1s-.1-.2-.1-.2-.1 0-.1-.2.1-.2.1-.3c.1 0 .1-.2.1-.3-.1-.6-.2-1-.1-1s.1-.2 0-.5c-.1-.5-.1-.9 0-1.2 0-.5-.1-1.5-.2-1.8-.1-.3-.1-.3.1-.7.1-.2.3-.5.3-.5.1-.1 1.3-2.4 1.5-2.9.2-.5.4-1.2.3-1.2 0 0 0-.1.1-.2s.2-.2.1-.2c0 0 0-.1.1-.2s.1-.2 0-.5c-.1-.2-.1-.3 0-.4.1 0 .1 0 0 0v.2c.1.1.1-.2 0-.3-.2-.2-.1-.5.1-.6.2-.1.2-.1.2 0s-.1.1 0 .1.5-.7.5-.8c0-.3-.2-.1-.3.2-.2.5-.4.4-.4-.2 0-.3 0-.5.1-.5 0 0 .1-.2.1-.4s.1-.4.2-.5c.1-.1.1-.2.1-.3-.1-.1 0-.8.2-1.2.1-.3.2-1.3.1-1.3s-.1-.6 0-.7v-.2c0-.1 0-.3.1-.5s.2-.5.1-.7c0-.2 0-.5.1-.7.1-.3.1-.5.1-.6-.1-.3.1-.6.5-.6.5 0 .6-.1.4-.3-.2-.2-.2-1.3 0-1.5.1-.1.1-.2.1-.2v-.2c.1-.4-.1-1.1-.5-1.5-.2-.2-.3-.4-.3-.5 0-.1.1 0 .2.1s.2.2.3.2c.3 0 .6.4.4.6-.1.1-.1.1.1 0 .3-.1.4-.6.6-1.4 0-.2.1-.8.2-1.4.1-.6.2-1.2.1-1.2 0-.1 0-.2.1-.2h.1s0 .2.1.3c0 .1.1.5.1.8 0 .3.1.7.2.7.1.1.1.5 0 .5s-.1.1-.1.3c0 .2.1.3.1.3.1 0 .1.1 0 .2s-.1.1 0 .1c.1-.1.1 0 .1.1 0 .4 0 .7-.1.9-.1.1-.1.1.1.1.1 0 .2-.2.2-.3 0-.3.3-.4.3-.1 0 .1.1.1.1-.1.1-.1.2-.2.2-.1.1 0 .1-.1.1-.3 0-.2 0-.3.1-.3s.1.1.1.1c0 .1 0 .1.1.1.1-.1-.1-.4-.2-.3-.1 0-.1 0-.1-.1s.1-.2.2-.1c.1 0 .2 0 .2-.1v-.1c-.1 0-.1 0-.1-.1s.1-.1.2-.1c.2 0 .2 0 .1-.1s-.1-.1 0-.1.1 0 .1-.1 0-.1.1-.2c.2-.1.5-.8.5-1.1 0-.1.1-.3.1-.3.1 0 .1-.2.1-.5 0-.2.1-.4.1-.4.1 0 .1-.1.1-.2s.1-.3.1-.4c.1-.1.1-.3.1-.6s0-.4.1-.6c.1-.1.2-.3.1-.4 0-.2 0-.5.1-.8.1-.3.1-.5.1-.6v-.1c.1 0 .1-.2.1-.5.1-1.2.1-1.1.3-1.1.1 0 .3-.4.3-.8.1-.8.1-1 .2-1.1.1-.1.1-.2.2-.3 0-.1 0-.2-.1-.1-.1 0-.1 0-.1-.1s.1-.1.3-.1c.2 0 .2 0 .2-.2 0-.1 0-.3.1-.4.1-.1.1-.2 0-.1s-.1 0-.1-.1.1-.1.2-.1 0-.1 0-.2c-.1-.2-.1-.3.1-.5.1-.1.3-.2.3-.1s.1 0 .1-.1 0-.1-.2 0c-.1.1-.2.1-.2 0s.1-.2.2-.2.2-.2.2-.5c0-.1 0-.1.1 0h.2c0-.1 0-.1-.1-.1s-.1-.1-.1-.1v-.4c-.1-.3.1-.5.1-.3 0 .1.1 0 .1-.1v-.2s-.1-.1-.1-.2 0-.1.1 0 .1.1.2 0c.2-.2.3-.5.3-.9 0-.8.2-1.5.4-1.6.1-.1.2-.3.1-.4v-.4c.1-.1.1-.2.1-.3.1-1 .1-1.7.2-1.7 0 0 .1-.1.1-.2s.1-.2.1-.3c-.8-.3-1.5-.8-2.2-1.4-.3-.3-.6-.6-.8-1-.8-.3-1.6-.8-2.2-1.4h-.5c-.5 0-1.2.1-1.7.1-.8.1-1.9.1-3.6.1h-1.3c-.2 0-.5-.1-.6-.2-.3-.2-1-.9-1.3-1.3-.1-.1-.6-.6-1.2-1.1-1.6-1.3-1.4-1.2-1.4-1.7 0-.3.1-.5.1-.6 0 0 .4-.1.8-.1s.8-.1.9-.2c.2-.2.6-.2.6.1 0 .1.1.2.2.3.1 0 .1.1.1.2-.1.2.1.4.4.5.1 0 .3.1.4.1.1.1.3 0 .4 0 .1-.1.3-.1.3-.1.1 0 .2-.1.3-.1.1-.1.2-.1.3-.1.1 0 .3-.1.4-.3.2-.2.3-.4.4-.4.2 0 2-2.1 1.9-2.2 0-.1 0-.2.2-.4.1-.2.2-.3.2-.4 0-.1.1-.3.3-.5.2-.2.3-.4.3-.5v-.3c0-.1.1-.3.1-.6 0-.7.1-.9.2-1.1.1-.1.1-.4 0-.7 0-.4 0-.6.1-.7.1 0 .1-.1.1-.2s-.1-.5-.1-1c-.1-.8-.1-1.3-.2-2.2 0-.3-.1-.7-.1-1.1 0-.3-.1-.6-.2-.7-.1-.1-.1-.4-.2-.7 0-.3-.1-.6-.2-.7-.1-.1-.1-.4-.2-.7 0-.3-.1-.6-.2-.6s-.1-.3-.1-.5c0-.4-.2-.7-.4-.7-.1 0-.4.3-.6.6-.3.3-.6.6-.7.6-.1 0-.3.1-.4.2l-.2.2s-.2 0-.4.1-.4.2-.5.3c-.2.1-1 .3-1.1.2-.1 0-.2 0-.3.1-.1.1-.5.2-1.1.2-.5 0-1 .1-1.2.1-.8.1-2.3.2-2.5.1-.1-.1-.4-.1-.7 0h-.7c-.1-.1-1.2-.3-1.4-.2-.1 0-.2 0-.3-.1-.1-.1-.2-.1-.3-.1-.1 0-.2 0-.3-.1-.1-.1-.3-.1-.4-.1-.1 0-.3 0-.3-.1.5-.2.4-.2.3-.2-.1 0-.3-.1-.5-.2l-.4-.2c-.1 0-.2 0-.3-.1-.1-.1-.3-.2-.4-.2s-.3-.1-.5-.2c-.1-.1-.3-.2-.4-.1-.1 0-.3-.1-.5-.2s-.4-.3-.5-.3c-.1 0-.6-.3-1.1-.7-.5-.4-.9-.7-1-.7-.1 0-.1.1-.1.2s-.1.4-.2.5c-.1.1-.2.3-.1.4 0 .1 0 .2-.1.3-.1.1-.1.2-.1.3 0 .5-.3 1.6-.5 1.8-.1.1-.2.4-.2.5 0 .1-.1.3-.2.4-.1.1-.2.2-.2.4 0 .1-.2.5-.4.8-.2.3-.4.6-.4.7 0 .3-1 1.5-1.2 1.5-.1 0-.3.1-.5.3-.2.2-.4.4-.5.4-.1 0-.2.1-.3.2 0 .1-.1.1-.3.1-.3-.1-.6.4-.6.9 0 .2.1.5.1.5.1 0 0 .1-.1.1s-.2.1-.2.2-.1.1-.2.2c-.2.1-.2.1-.1 0 .1-.2-.5.3-1 .8-.2.2-.3.3-.3.2 0-.1-.1 0-.1.1-.2 0-.3.1-.4.1-.1 0-1 .5-1.3.9-.1.1-.3.2-.5.3-.2.1-.4.2-.5.3-.1.1-.2.2-.3.1-.1 0-.2 0-.2.1s-.2.3-.6.4c-.3.2-.5.3-.5.3s-.1.1-.2.3c-.2.2-.3.3-.3.4 0 0 0 .1-.2.2-.1.1-.4.3-.6.5l-.7.7c-.2.1-.3.3-.3.4 0 .1 0 .1-.1.1s-.2 0-.3.2c-.1.1-.2.2-.3.2 0 0-.2.1-.3.3-.1.2-.3.3-.4.3-.1 0-.1.1-.1.2s0 .1-.1.1-.1 0-.1.1 0 .1-.1 0-.1-.1-.1 0-.1.2-.3.3c-.2.1-.3.2-.3.2.1.1 0 .3-.1.2-.1-.1-.8.6-.8.9 0 .2-.2.4-.5.4-.1 0-.2.1-.3.2 0 .2-.8.6-1 .6l-.2-.4c-.3-.8-.5-1-.6-.9 0 .1-.1.1-.2.1s-.1 0-.1.1c0 .2-.3.3-.4.1.1-.2.1-.2.2-.1s0 .1-.1 0c-.1-.2-.2-.1-.3.2-.1.2-.3.3-.3.3-.1 0-.2.3-.3.6-.1.3-.2.8-.3 1.1-.1.2-.2.6-.2.7 0 .4-.3.6-.6.6-.1 0-.3 0-.4.1h-.4c-.1 0-.4 0-.7.1-.2.1-.5.1-.7.1-.1 0-.3 0-.4.1-.1.1-.8.1-1.7.1-1.9 0-5.3.1-6 .1-.5 0-.5 0-.7.6-.2.5-.3.6-.1.8.1.2.1.2 0 .2s-.2.1-.3.2c0 .1.1.2.1.3l.1.1c.1.1.1.2 0 .2v.2c.2 0 .3 0 .3.2v.2s.1.1.1.2.1.2.2.2.2 0 0 .2-.2 1.1 0 1c.1 0 .1 0 .1.1-.1.4 0 .5.4.5s.4 0 .4.4 0 .4-.2.3c-.2-.2-.6 0-.5.2.1.3-.2.8-.5.8-.2 0-.3 0-.2.2v.2c.3.8.5 1.7.5 2.5.1 1.3-.5 2.7-1.3 3.8 1.4.2 2.7.8 3.7 1.8l.2.2c.5-.4 2.2-.7 4.1-.8.9-.1.9 0 1 .1 0 .1-.1.1-.2.1-.7 0-2.1.3-2.5.6-.2.2-.4.3-.4.4 0 .3 1.1.6 2.3.7.7 0 1 .1.9.2-.1.1-3.7.1-4.2 0h-.1c.5.9.7 2 .7 3 0 .3 0 .6-.1 1 .4-.1.8-.1 1.2-.1h.2c1.1 0 2.2.3 3.2.9.3.2.6.5 1 .7l1.2.9c.2.2.4.4.6.7.1 0 .2.1.3.2 0-.4 0-.9-.1-1.5-.2-2.1-.2-3.3 0-3.5.1-.1.2-.1.4.1.2.1.4.2.5.2.2 0 .3.1.4.4.1.2.3.4.5.4.5.1 1 .4 1.1.7.1.3.2.3.8.3.5 0 .6 0 .7.2 0 .1.1.2.3.2.1 0 .2.1.3.2.1.2.1.2.7.2h.6v-.5c0-.2.1-.4.1-.4l.4.2c.2.1.3.2.2.3-.1.1-.1.1.1.1.7 0 1.5.1 1.7.2.1.1.2.1.1 0 0-.1 0-.1.1-.1s.2.1.1.1c-.1.1.4.4.5.3.1 0 .1 0 0 .1 0 .1 0 .1.1.1s.2 0 .3.1c.1.1.1.2 0 .3-.1.2-.1.2 0 .1.3-.2.6-.2.7 0 .1.1.1.1.2 0s.2-.1.4 0l.2.2s0 .1 0 0c0 0 .2 0 .3.1.1.1.2.1.3-.1.1-.1.1-.1.4 0 .2.1.4.2.5.2.1 0 .3 0 .3.1.1.1.9.1 1 0 .1-.1.5-.1.5 0s.1.2.1.3c0 .1.1.3.1.3.1.1-.1.7-.2.7s-.1.1-.1.2c0 .3-.6.8-1 1-.2.1-.4.3-.4.4-.1.3-.4.7-.5.7 0 0-.3.2-.5.5-.3.3-.6.5-.7.6-.1.1-.2.2-.2.3 0 .1-.1.2-.2.2s-.2.2-.2.3c0 .1-.1.3-.2.4-.1.1-.2.2-.2.3 0 .1-.1.5-.3.8-.3.6-.3.8-.3 1.3 0 .4.1.7.1.7.1.1.2.4.2 1.2 0 .3.1.5.1.6 0 0 0 .3-.1.6s-.1.6-.1.7c.1.3.1.7 0 1-.1.2-.1.4 0 .5 0 .1 0 .3-.1.4-.5.9-.6 1.3-.4 1.7v.1s0 .1.1.3c.1.1.1.3.1.3s0 .1.1.2.1.2 0 .2-.1 0-.1.1 0 .2-.1.2c0 .1-.1.4 0 .6 0 .3 0 .5-.1.6-.1.1-.1.1 0 .3.2.2.2.2 0 .1-.1 0-.2 0-.2.1-.1.3-.1.5.1.5s.2 0 0 .2c-.1.1-.2.3-.2.3 0 .1 0 .2-.1.3-.1.1-.1.1 0 .1.2-.1-.1.2-.5.7-.2.2-.3.3-.2.3.1 0 .2.1.2.2.1.1.1.2 0 .2s-.1-.1-.1-.1c0-.1 0-.1-.1 0s-.3-.2-.3-.4c0 0 0-.1-.1-.1s-.1.1-.1.1c0 .1 0 .1-.1.1s-.1.1-.1.2c-.1.2-.5.3-.5.1 0-.1.3-.2.4-.1 0 .1.1 0 .1-.1 0-.2 0-.2-.1-.1s-.2.1-.3.1c-.1 0-.1 0 .1-.2s.2-.2-.2-.2c-.3 0-.4.1-.5.4 0 .1-.1.1-.1.1-.1 0-.2.1-.2.1 0 .1-.1.2-.2.2s-.1.4.1.6c.1.1 0 .1-.1.2-.2.1-.2.3.1.2h.2c0 .1-.1.1-.1.1-.1 0-.1 0 0 .1.1 0 .1.1.1.2 0 .2 0 .3.1.3s.1.1.1.2c-.1.1-.1.1-.2 0s-.1-.1 0 .2c.1.2.2.3.2.4 0 0 .3.4.6.9.3.4.6.9.7 1 .1.1.2.3.2.3.1 0 .1.1.1.2v.2s.1.2.1.4c0 .3.1.4.2.4s.1.1.1.1c0 .1 0 .2-.1.2s-.1.1-.1.2.1.2.1.2c.1 0 .1.1.1.3 0 .2 0 .5.1.6.1.2 0 .2-.1.2s-.2 0-.2.1.1.2.1.2c.1 0 .1.1.1.2s0 .2.1.2.1.1 0 .2-.1.2.1.4c.1.1.2.2.1.2s-.1.1-.1.2 0 .1.1.1.1 0 0 .2-.1.3 0 .3.1.1.1.3c0 .1.1.3.2.4.2.2.2.2 0 .1s-.2-.1-.1.1c0 .1.1.4.1.5 0 .1.1.2.1.2.1 0 .1.1.1.2s0 .2.1.2.2.4.1 1.1c0 0-.1.1-.2 0-.1 0-.1 0 .1.2.2.1.2.3.2.3-.1 0-.1.1-.1.3v.3l-.1.1c0 .1.1.1.1 0 .1 0 0 0-.1.1s-.3.3-.4.3c-.1 0-.2.2-.3.4-.1.2-.2.3-.2.3-.1 0-.1 0-.1.1s-.1.2-.2.1c-.1 0-.3 0-.5.2s-.3.2-.3.2-.1 0-.2.1-.3.2-.5.1-.4 0-.5.2c-.5.5-.9.6-2.7.3-.9-.1-2.3-.4-2.4-.5-.1 0-.3-.1-.5-.1s-1-.2-1.7-.4c-1.5-.4-2.2-.4-2.5 0l-.1.1c0-.2-.6.4-.7.6-.1.2-.2.5-.4 1-.2.4-.3.5-.9.8-.4.2-.5.3-.5.5s-.1.2-.2.2c-.2-.1-.3.1-.2.6 0 .1 0 .2-.1.2s-.1 0 0 .1c.2.1.3.1.2-.2-.1-.2.1-.3.2-.1 0 0 0 .3-.1.6-.2.7-.2.8-.1.8s.2.1.3.2c.1.2.2.2.1.1 0-.1 0-.2.1-.2s.2.1.1.2c0 .1.1.3.3.4.3.2.4.6.2.5-.1 0-.2 0-.2.1s12.8.1 43.9.1h44v-6.5c.2-4.3.1-7.1.1-7.2zM80.5 72.9c-.1-.1 0-.8.1-.8s.1 0 .1.1c0 .2-.1.7-.2.7zm.2-1.2c-.1 0-.1-.5 0-.6.1-.1.1-.1.1.2 0 .2 0 .4-.1.4zm.1-1.4c-.1.1-.1.1-.1-.1 0-.1.1-.2.1-.2.1 0 .1 0 .1.1 0 0 0 .1-.1.2zm0-9.6c.1-.3.3-1.2.6-2.1.4-1.4.8-2.7.9-3.2 0-.1.1-.1.1-.1.1 0 .1.2.1.4s-.1 1.3-.2 2.5-.2 2.2-.2 2.2c0 .1-.1.5-.1 1s-.1 1-.1 1.2c-.1.3-.2 1.7-.2 2.2 0 .2 0 .4-.1.5-.1.1-.1.5-.1.9s-.1 1.3-.3 2c-.1.7-.2 1.4-.2 1.5 0 .1 0 0-.1-.2v-1.1c.1-.5 0-.7-.1-.9l-.1-.1c0 .1-.1.1-.1.1-.1 0-.1-.1-.1-.2.1-.1 0-.2-.1-.1-.1 0-.2 0-.3-.2-.1-.1-.2-.3-.4-.3-.6 0-.5-.6 1.1-6zm-2.2 13c.1-.1.1-.3.1-.3 0-.1.1-.2.1-.2.1 0 .1-.1.1-.2s.1-.2.4-.2c.2 0 .4 0 .4.1s0 .2.1.3c0 .2 0 .2-.1.2-.2-.1-.7.3-1.1 1-.2.4-.4.6-.4.6 0-.1.3-1.1.4-1.3zm-1 5.3c.1 0 .1-.1.1-.3 0-.2 0-.2.2 0 .1.1.2.3.2.5s0 .2-.1.1c-.1-.2-.3 0-.2.3v.2c-.2 0-.3-.8-.2-.8zM27.4 65c-.1 0-.1 0-.1-.2 0-.1.1-.2.1-.2.1 0 .1.1.1.2.1.1 0 .2-.1.2zm2.9.7c-.2 0-.2-.2-.1-.3.1 0 .1-.2.1-.3-.1-.3.1-.3.2-.1.1.2-.1.7-.2.7zm39.4 11.8c.1.1.1.1 0 .1s-.1 0-.1-.1v-.3c0-.1 0-.2.1-.1.1 0 .1.1 0 .1-.1.2-.1.2 0 .3zm1 .1c-.2-.1-.2-.1-.3 0-.1.2-.4 0-.4-.2 0-.1.1-.1.1-.1.1 0 .1 0 .1-.1V77c0-.1.1 0 .1.2 0 .3.1.3.2.2.2-.1.2-.1.3.1.2.2.2.2-.1.1zm-.3-.8c0-.1.1-.1.2-.1s.2 0 .2.1-.1.1-.2.1-.2 0-.2-.1zm5.1-22.4c.1-.1.3-.1.5 0 .4.1.1 1.3-.3 1.2-.1-.1-.2-1-.2-1.2zm-.3 1.5c0-.1.1-.1.2-.1s.1.1 0 .2c-.2.2-.3.1-.2-.1zM76.3 34c.2 0 .3 0 .4.1.1.1.3 1.4.2 1.4-.2 0-.5-.3-.5-.5 0-.1-.1-.3-.2-.4-.4-.4-.3-.7.1-.6zm-1.5 3.9c.1.1.2.2.2.3 0 .1-.5-.3-.5-.4-.1-.1 0-.1.3.1zm-10.6-2.2c.1.1.2.1.3.1.2-.1.8.4.8.6 0 .1-.1 0-.3-.1l-.4-.2c-.1.1-.8-.4-.8-.6 0-.1.2-.1.4.2zm-3.6-3.1c.1-.1.1-.2.1-.3-.1-.3.1-.2.5.2l.4.4s-.2.1-.5.1c-.4 0-.7-.1-.5-.4zm-3.1 2.9c.3-.3.3-.3.7 0 .2.2.3.4.3.5 0 .1.1.2.1.3.1 0 .1.1.1.2-.1.2 1.3 1.4 1.6 1.4.1 0 .4.2.7.4.3.2.6.4.7.4.1 0 .3.1.4.2.1.1.4.2.5.2.1 0 .3.1.4.2.1.1.3.2.4.2s.3.1.5.2c.1.1.3.1.4.1.1 0 .2.1.4.2l.4.2c.1 0 .2 0 .4.1.1.1.3.2.5.2s.2 0 .3.1c0 .1.2.1.4.1s.4.1.4.2c.1.1.3.2.4.2.2 0 .3 0 .4.1.1.1.6.2 1.1.3.5.1 1.2.2 1.4.2.4.1.6.1 1.6.1h1c.3 0 .6 0 .6-.1.1-.1.2-.1.3-.1.4 0 1.4-.1 1.5-.2.1 0 .2-.1.4-.1s.5-.2.8-.3c.3-.1.6-.3.7-.3.3 0 .1-.3-1-1.2-.6-.5-1.1-.9-1.1-1 0-.1.2-.1.3 0 0 .1.1.1.2.1h.3c.9.3.9.3 1.1.1.1-.1.2-.1.2 0 0 .6.1 1.4.2 1.5h.3c.7-.2 1.2 0 1.3.7.1.5 0 .5-.4 1-.3.3-.5.5-.6.5-.1 0-.2.1-.3.2-.1.1-.2.2-.3.2-.1 0-.2 0-.3.1 0 .1-.1.1-.2.1s-.3.1-.4.2c-.1.1-.4.2-.5.3-.3 0-.9.1-1 .2-.1 0-.2.1-.4.1s-.7.1-1.1.1c-1 .1-2.2.1-2.8 0-.3 0-.7-.1-1-.1-.3 0-.6-.1-.6-.1-.1-.1-.3-.1-.6-.1-.4-.5-.6-.6-.6-.6 0-.1-.1-.1-.2-.1s-.2 0-.3-.1c-.1-.1-.2-.1-.3-.1-.1 0-.3 0-.4-.1-.2-.1-.3-.2-.4-.2-.1 0-.3 0-.4-.2-.2-.1-.3-.2-.4-.2-.1 0-.3-.1-.4-.2-.2-.1-.4-.2-.4-.1s-.2 0-.3-.1c-.1-.1-.3-.2-.4-.2-.1 0-.3-.1-.5-.2-.1-.1-.3-.2-.5-.2s-.4-.1-.5-.2c-.1-.1-.3-.2-.5-.2-.1 0-.3 0-.3-.1-.1-.1-.6-.4-1-.5-.1 0-.4-.2-.7-.4-.3-.2-.5-.3-.7-.3-.2 0-.2 0-.2-.1s-.1-.1-.2-.2c-.2-.1-.3-.1-.2-.3.1-.2 0-.3-.4-.7-.3-.3-.5-.5-.5-.6 0-.1-.1-.2-.2-.4s-.2-.5-.3-.9c-.1-.3-.1-.4.1-.6zm13.1 13c-.2 0-.3-.4-.2-.5.1-.2.3-.1.4.1 0 .3 0 .4-.2.4zm-31.7 8.1c.1-.1.3-.5.4-.7.2-.4.3-.5.9-.8.4-.2.8-.5.9-.6.1-.1.2-.2.3-.2.1.1.3-.3.2-.4 0 0 0-.1.1 0 .1 0 .3 0 .4-.1s.3-.2.3-.1c0 0 .1 0 0-.1 0-.1.1-.2.2-.2s.2-.1.2-.1c-.1-.1.5-.8.9-1 .2-.1.3-.2.2-.1-.1.1 0 .1.1 0s.2-.1.2-.1c.1 0 .1-.1.2-.2l.1-.2v.2c0 .2 0 .2.1.1s.1-.2 0-.3c-.1-.1-.1-.1.1-.1.1 0 .2.1.1.2 0 .1 0 .1.1 0s.2-.2.2-.3c0-.1 0-.1.1-.1.1.1.4 0 .4-.1s.1-.1.3 0c.2.1.3.1.3 0s.1-.1.2-.1c.2 0 .3-.1.4-.1.1-.1.1-.1.2 0s.1.1.2 0 .4-.2.6-.1h1.4c.7 0 .9 0 1-.1.1-.2.2-.2 1 0 .3.1.4 0 .5-.1.1-.1.1-.1.2 0s.2.1.3.1c.1 0 .3.1.4.2.1.1.1.2.2.2 0 0 .1 0 .1.1s.1.1.1.1h.1c0 .1 0 .1.1.2.1 0 .2.1.2.3 0 .4-.2.5-.3.3-.1-.1-.1-.1-.1 0 0 .2.5.5.7.5.1 0 .1 0 .1.1s0 .1.1.2c.1 0 .1.1.1.2s0 .1.1.1.1-.1.2-.3c0-.2.1-.3.2-.3s.1.1.1.1c-.1.1.1.4.2.3 0-.1 0-.1-.1-.2s-.1-.1 0-.1.1 0 .1-.1c-.1-.2.1-.2.5 0 .3.1.4.2.5.1 0-.1 0-.1 0 0h-.1c0-.1 0-.1-.1-.1 0 0-.1-.1-.1-.2 0-.2 0-.2.1-.1s.2.2.4.1.2 0 .2.1c0 .2 0 .2.1.2.2 0 .2 0 .1-.2s0-.3.2-.5c.3-.3.8-.4.6-.1-.2.2-.3.5-.1.5.1 0 .1-.1.1-.2s.1-.1.3-.1c.2 0 .3.1.2.2 0 .1-.1.2-.1.1-.1 0-.1.1 0 .2.1.3-.1.4-.2.1 0-.1-.1-.1-.1.1-.1.2 0 .2.3.2.2 0 .4-.1.4-.2s.1 0 .3.2c.1.2.2.3.1.3 0 0-.1 0-.1-.1s-.1-.1-.2-.1-.2.1-.2.1c0 .1.1.1.1 0 .1 0 .1 0 .2.1s.1.1.3 0c.2-.1.2-.1.2 0-.1.1 0 .1.1 0 .2-.1.2-.1.3 0 .1.1.1.2.3.1.1-.1.3-.1.4 0 .3.1 1.2.1 1.3 0 .1-.1.1-.1.1.1s.4.3.6.1c.2-.1.8.1.7.2-.1.1.1.1.3 0 .1-.1.1-.1.1 0-.1.2.1.2.2 0 .1-.1.1 0 .1.2s0 .3.1.3.1-.1.1-.1c0-.1.1 0 .2.1s.2.2.3.2c.1 0 .2 0 .3.1.1.2 0 .4-.3.4-.2 0-.5.2-.5.4 0 .1-.2.1-.3.1-1 0-2.1.2-2.4.4l-.4.2c-.1 0-.1 0-.1.1s-.2.1-.4.2c-.3 0-.5.1-.6.3-.1.1-.3.3-.6.3-.3.1-.4.2-.4.3 0 .1-.1.2-.2.2s-.3.1-.3.3c-.1.2-.2.3-.4.3-.3 0-.4.1-.5.3-.3-.6-.5-.6-.8-.6-.3 0-.4.1-.4.1 0 .1 0 .1-.1 0s-.2-.1-.4 0-.3.2-.3.3c0 .1-.2 0-.4-.1-.4-.1-.5-.1-.8 0-.2.1-.3.1-.3 0s-.1-.1-.1-.1c-.1 0-.1 0 0 .1 0 .1 0 .1-.1.1s-.1 0-.1-.1c0 0-.1-.1-.2 0-.2 0-.4 0-.5-.2-.3 0-.5-.1-.6-.1-.1 0-.2-.1-.2-.2s-.2-.2-.4-.3c-.2-.1-.5-.2-.5-.3-.1-.1-.3-.2-.6-.2s-.4-.1-.5-.2c-.1-.1-.2-.2-.8-.2-.5 0-.7 0-.8-.2-.2-.2-1-.2-4 .1-3.6.3-4.9.4-5.1.4-.2.2-.2 0 .1-.3zm-4.5 2.7c.1-.1.2-.2.2-.3 0-.2 0-.2.3 0 .1.1.3.4.3.5 0 .3-.4.4-.5.1 0-.1-.1-.2-.3-.3l-.2.1.2-.1zm.2 10.7c-.1-.1-.1-.3-.1-.4 0-.3.1-.2.1.2.1.3 0 .3 0 .2zm1 3.9c-.2-.4-.3-.8-.2-.8 0 0 .1.2.2.5.3.7.3.9 0 .3zm14.7 0c-.1.4-.2.5-.3.3-.1-.2 0-.6.2-.6.1 0 .1 0 .1.3zm6.9-5c-.2 0-.3 0-.4.1-.1.1-.1.1-.1 0 0-.2-.4-.2-.6 0-.1.1-.3.1-.6.1s-.5.1-.4.1c0 .1 0 0-.2 0-.1-.1-.2-.1-.2 0s0 .1-.1.1c-.2 0-.4 0-.7.4-.2.2-.3.4-.3.4.1.1-.6.5-.7.4-.2-.1-.6.3-.6.5 0 .1-.5.6-.6.6 0 0-.1-.1 0-.3 0-.2.1-.3.2-.3s.2-.1.2-.3c0-.2.1-.4.2-.4.1-.1.2-.3.2-.4 0-.2.2-.3.3-.4.2-.1.2-.2.2-.5s0-.4.2-.5c.2 0 .2-.1.2-.5 0-.3.1-.5.2-.6.1-.1.2-.3.2-.5s.1-.4.1-.4c.1 0 .2-.2.2-.4.1-.4.2-.6.7-.8.5-.2.5-.3.9-.1.2.1.3.3.4.5.1.3.2.4.3.5.2.1.2.2.3.5 0 .3.1.4.3.5.2.1.2.2.2.4 0 .4.1.6.3.6.2 0 .2.1.2.2s0 .2.1.3c.2 0-.2.2-.6.2zm7.6 9.1c-.2.2-.3 0-.4-.5 0-.3 0-.4.1-.3.1 0 .1.2.1.3-.1.3.1.5.2.5.1-.1.1-.1 0 0zm.6-.8c0 .3-.2.3-.4.2-.1-.1-.2-.1-.1.1 0 .1 0 .2-.1.2s-.1-.1-.1-.2c0-.2.4-.4.6-.3h.1c-.1-.1-.1-.2 0-.2v.2zm-.2-.3s0-.1 0 0c.1-.1.2-.1.1-.3-.1-.2 0-.2 0-.1.1.1.1.1.1 0s-.1-.2-.3-.3-.1-.2-.1-.2c0-.1.1-.1.2.1.1.1.2.1.2.1s.1.1.1.3c.1.2-.2.5-.3.4zm.2-3.8c-.1 0-.2-.1-.3-.1-.1 0-.2-.2-.3-.4-.1-.5-.6-.9-1.1-1-.2 0-.5-.2-.6-.3-.1-.1-.4-.2-.5-.2s-.3-.1-.5-.2c-.3-.3-.6-.5-.9-.7-.2-.1-.6-.5-.9-.7l-.9-.9-.4-.4c0-.1-.1-.1-.2-.1s-.2-.1-.3-.4c-.1-.3-.2-.4-.3-.5-.1 0-.2-.2-.2-.3 0-.1-.1-.4-.3-.5-.1-.1-.3-.3-.3-.5 0-.1-.1-.4-.3-.5.1-.1-.1-.4-.1-.6 0-.2-.2-.5-.4-.7-.2-.2-.3-.4-.4-.6-.1-.3-.5-.4-1.2-.4-.6 0-1 .1-1 .4 0 .1 0 .2-.1.2-.2 0-.6.9-.7 1.4 0 .3-.1.6-.1.7-.1.1-.2.3-.2.6-.2.5-.5 1.3-.6 1.6 0 .1-.1.2-.1.2s-.1.2-.1.3c-.1.2-.1.3-.1.4 0 .1-.3.7-.6 1.1-.1.2-.2.4-.2.5 0 .1-.1.3-.2.4-.1.1-.2.2-.2.3 0 .1-.1.2-.2.2s-.2.2-.2.3c-.1.4-.7 1.2-1 1.4-.6.4-1.5.8-1.7.9-.1 0-.7.1-1.2.1-.8.1-1 0-1.1-.1-.2-.2-.4-.2-.6 0-.1.2-.3.2-1 .3-.8 0-1.2.1-1.2.3l-.2.4-.1.4-.5-.5c-.4-.4-.5-.5-.8-.4-.2 0-.3 0-.5-.2-.1-.1-.3-.2-.5-.2-.3 0-.4-.1-.4-.2s-.1-.2-.3-.2-.2-.1-.3-.2c0-.1-.2-.2-.4-.3-.2-.1-.4-.2-.4-.3 0-.1-.2-.1-.3-.1-.2 0-.3-.1-.3-.2s-.2-.2-.3-.2c-.1 0-.2-.1-.3-.3 0-.2-.2-.4-.3-.5-.1-.1-.3-.3-.3-.4 0-.1 0-.2-.1-.2-.2 0-.4-.3-.4-.6 0-.2-.1-.3-.3-.4-.2-.1-.3-.2-.3-.4 0-.4-.1-.6-.3-.6-.1 0-.2-.1-.3-.4-.1-.3-.1-.5-.3-.5-.2-.1-.3-.2-.4-.9 0-.2-.2-.6-.3-.8-.2-.3-.3-.5-.3-.9 0-.6-.2-1.5-.5-2.2-.2-.5-.2-.6-.1-.7.1-.1.3-.3.4-.5.3-.4.3-.5.2-1-.1-.5-.1-.7-.4-.9-.2-.1-.3-.3-.4-.3-.2 0-.7-.7-.7-.9 0-.1.1-.3.3-.3.3-.1 1.3-.2 1.3-.1 0 0-.1.2-.2.3l-.2.2.3.3c.1.1.3.4.4.6.1.3.2.3.7.3.5 0 .6 0 .9-.3.3-.4.4-.4.3-1v-.6l.7-.1c.4-.1.8-.2.9-.3.3-.2.2-.2 7.3-.8 2.1-.2 2.2-.2 2.5 0 .2.1.5.2 1 .2.6 0 .7 0 .9.2.1.1.3.2.5.2.3 0 1.4.8 1.6 1.1 0 .1.1.1.2.1s.2.1.3.2c.5.5 1.2 1.1 1.3 1.1.1 0 .1.1.2.2.1.2.2.2.6.2 1.1 0 1.5-.3 2.4-1.7.1-.2.3-.4.3-.4s.3-.3.7-.6c.3-.3.7-.6.8-.6.1 0 .3-.1.4-.3.1-.2.3-.3.4-.3.1 0 .4-.1.5-.3.2-.2.4-.3.9-.4.4-.1.7-.2.9-.3.2-.2.5-.3 1.6-.4 1-.1 1.4-.2 1.6-.3.4-.3.6-.3 2.1-.4.8-.1 1.5-.2 1.7-.3.6-.3.8-.3 2.1-.5 1.3-.1 2.4-.1 2.6 0 .1 0 .2.2.2.4s.1.4.2.4c.1.1.1.1 0 .1s-.1.2-.1.5c0 .5 0 .5-.2.3-.1-.1-.3-.2-.4-.2-.3-.1-.2-.3 0-.4.4-.2.2-.6-.4-.5-.4 0-.6.3-.6.7 0 .2-.1.3-.3.3-.2 0-.4.1-.6.1-.1 0-.3.1-.5.3-.3.5-.6.5-.8.1-.3-.6-.7-.7-1.4-.6-.3 0-1.1.1-1.7.2-1.1.1-1.3.1-1.5.5-.2.3-.6.3-.8-.1-.2-.3-.4-.3-.8.1-.2.1-.4.3-.5.3-.1 0-.2.1-.3.2-.1.1-.2.3-.3.4-.2.1-.2.2-.1.8v.6c-.1 0-.7-.7-.9-1.1-.1-.2-.2-.3-.4-.3-.5 0-.6.1-1.1 1.1-.2.3-.2.4-.3.2-.2-.3-.8-.2-1.1.1-.1.2-.4.4-.5.5-.1.1-.3.3-.4.5-.1.2-.1.3-.2.3s-.2.3-.4.6c-.3.6-.3.6-.2 1.7.1 1.5.1 1.7.4 1.8.2.1.3.2.3.5s.1.5.3.7c.1.1.3.4.3.6.1.3.1.4.3.5.2.1.3.2.3.5s.1.4.2.4.3.2.3.3l.2.2c.1 0 1.4 1.3 1.4 1.4 0 .2.8.8 1.1.9.2 0 .3.1.4.2.1.1.2.1.3.1.1 0 .2.1.4.2.2.2.3.2.6.2s.6.1.9.2c.5.2.5.2 2.4.1 2.1-.2 2.2-.2 2.5-.5.1-.1.4-.2.7-.3.3 0 .6-.1.8-.2.1-.1.5-.3.8-.4.6-.3.9-.6 1.6-1.4.2-.3.5-.6.7-.7.1-.1.2-.4.2-.5 0-.2.1-.4.2-.5.1-.1.2-.3.2-.6 0-.2.1-.5.2-.6.1-.1.2-.4.2-.8s0-.6.2-.7c.2-.1.2-.2.2-1.9v-1.8l.4-.1c.5.4.7.2.7.2.1-.2-.2-.5-.4-.5-.1 0-.3-.2-.4-.4-.2-.2-.4-.4-.6-.5-.3-.1-.3-.1-.4-.7 0-.3-.1-.6-.2-.7-.1-.1-.2-.5-.2-.8 0-.1.3-.1.6-.1.5 0 .6.1.6.2s.1.5.1.9c.1.6.1.7.3.8.1.1.3.2.3.2 0 .1.1.2.2.3.3.2.4 2.1.2 2.6-.1.2-.2.6-.2 1.1 0 .6 0 .8-.2.9-.1.1-.2.3-.2.8 0 .4-.1.8-.2 1.1-.1.2-.2.5-.2.6 0 .1-.1.4-.2.7-.1.3-.2.6-.2.7 0 .2-.2.6-.7 1.1-.4.5-.7.9-.7 1 0 .2-.3.8-.6 1.1-.2.2-.4.3-.8.4-.6.1-.6.1-.8.4-.1.1-.2.2-.3.2-.6 0-.9.3-1 1.1-.1.4-.1.4-.3.4-.2 0-.3-.1-.4-.3-.1-.4-.3-.6-.7-.5-.2.1-.4.2-.5.3-.1.1-.3.2-.9.2-.7 0-.7 0-.8-.2-.2-.5-.7-.3-.7.3.1.4 0 .5-.1.4zm7.9-11.7c.1 0 .1.1-.1.1-.4.1-.4.9 0 .9.3 0 .8.5.6.6-.1 0-.1.2-.1.5s-.1.5-.2.6c-.1.1-.2.2-.2.5s-.1.4-.2.5c-.1.1-.2.3-.2.5s-.1.4-.2.5c-.2.1-.2.3-.2.5s-.1.4-.2.6c-.1.1-.2.3-.2.3 0 .1-.1.1-.2.1s-.2.1-.3.3c-.1.1-.2.3-.3.3-.1 0-.2.1-.2.2 0 .2-.2.3-.6.3-.1 0-.3.1-.4.3-.2.3-.4.3-2.3.4l-1.1.1.2-.2c.3-.3.3-.4 0-.6-.3-.2-.7-.1-.7.3 0 .2-.1.2-.3.2h-1.3v-.5c0-.4-.1-.5-.3-.5-.1 0-.3-.1-.3-.2-.2-.3-.6-.3-.8.1-.1.2-.2.2-.2.1s-.1-.2-.2-.3c-.1-.1-.3-.3-.3-.5-.1-.2-.2-.3-.2-.3-.1 0-.2-.1-.3-.3s-.3-.3-.4-.3c-.1 0-.1-.1-.1-.2s-.1-.2-.3-.3c-.1-.1-.3-.3-.3-.5s-.1-.3-.3-.4c-.1 0-.2-.1-.3-.3 0-.1-.1-.2-.3-.3l-.3-.3c0-.2 0-.2.2-.2.3 0 .7-.4.7-.6 0-.1-.1-.2-.3-.2l-.2-.1.3-.1c.3-.1.3-.4.2-.7-.1-.2-.8-.2-.9 0v.5c.3.2.3.2 0 .3l-.3.1-.1-1c-.2-1.1-.2-2-.1-2.3.1-.2.4-.3 1-.3.3 0 .7-.1.9-.1.5-.2.5-.1.7.3.1.2.2.2.7.2.8 0 1.1-.2 1-.7 0-.2 0-.4.2-.6.1-.1.2-.4.2-.7s0-.5.1-.5.6-.1 1.1-.1c1.1-.1 1.7-.2 2.8-.3.7-.1.8-.1.9.1.1.1.2.2.3.2s.1.1.1.1c0 .1.2.3.4.4.3.3.5.3 1 .3.8 0 1-.2 1-.6 0-.5.4-.9 1-1 .1 0 .2.1.2.2s.1.7.1 1.3c0 .9 0 1.1.2 1.2.1.1.3.3.3.5s.2.4.3.4c.1.1.2.2.2.5s0 .3-.2.1c-.2-.3-.5-.3-.7 0-.2.2 0 .5.3.6zm-3.9 14.4c-.1.3-.1.3-.2.1-.1-.1-.1-.2-.1-.3 0 0 .1 0 .1.1.1.1.1.1.1-.1 0-.1 0-.2.1-.2.1.1.1.3 0 .4zM67 77.3c-.1-.1-.2-.1-.2-.1s-.1.1-.2.1-.1.1-.1.1c0 .1-.1.1-.2.1s-.2 0-.2-.1v-.3c0-.2 0-.2-.1-.1-.1.2-.1.2-.1 0 0-.1-.1-.2-.1-.2-.1 0-.1.1 0 .2 0 .1 0 .1 0 0-.2-.2-.1-.4.1-.3.2 0 .3.1.3.3 0 .2.1.3.2.3s.1 0 0-.1-.1-.2-.1-.2l.1-.1c.1 0 .3 0 .4-.1.2 0 .3 0 .4.1.2.5 0 .6-.2.4zm.4.3c.1 0 .1-.1 0-.3-.1-.1-.1-.2-.1-.3 0 0-.1-.1-.2 0-.3.1-.4-.1-.2-.3.1-.1.2-.2.1-.3 0-.1 0-.1-.1.1-.1.1-.1.2-.1.2-.1 0 .1-.5.2-.6.1-.1.1-.1 0-.1s.4-.4.4-.4v.2c0 .1-.1.2-.2.3-.1 0-.1.1.1.1h.2c0-.1.4-.5.5-.5.1 0 .1.2 0 .4.1-.1 0 0 0-.1-.1 0-.1 0 0 0 .1.1.4.2.3 0 0-.1 0-.1.2-.1s.2.1.2.3c0 .3 0 .3.1.2.1-.1.1-.1.1 0s.1.1.3-.1c.2-.1.3-.2.4-.2 0 0 0 .1-.1.1s-.1.1-.1.2v.1c-.2 0-.3 0-.2.1 0 .1.1.3.1.6 0 .4 0 .4-.3.4-.1 0-.3-.1-.2-.1 0-.1-.1-.2-.3-.1-.1 0-.1 0-.1-.1s-.1-.1-.1 0c-.1 0-.1 0 0 0 0-.1 0-.1-.2-.2l-.2-.1.2-.2c.2-.3.4-.2.4.2 0 .1 0 .2.1.2s.1-.2.1-.3c0-.2-.1-.4-.1-.5 0-.2 0-.2-.2-.1l-.2.2c0 .2-.6.7-.7.6 0-.1-.1 0 0 0 0 .1.1.1.2.1s.1 0-.1.2c-.3.3-.2.5.2.5.2 0 .3.1.4.1.1.1.1.1.2.1.2-.1.2.2.1.4-.1.1-.2.2-.2.1v-.3c0-.2-.1-.2-.4-.2-.4-.1-.7-.4-.5-.5zm23.3 36.8c-.1.6-1 2.7-1.1 2.7-.1 0-.1 0-.1-.1s1-2.8 1.1-3c.1-.2.2.1.1.4zm5 .2c-.1.5-.2.8-.5.8-.2 0-.3.1-.1.3.1.1 0 .4-.2 1-.3.8-.3.9-.7 1-.3.1-.5.1-.6 0-.1-.1-.3-.1-.3 0-.9.4-1.1 0-.8-1.3.2-.8.2-.9-.1-1.3-.5-.5-.4-1.6.1-1.5.1 0 .4 0 .7-.2 1.2-.5 1.2-.5 1.6-.2.2.1.4.2.5.3.3 0 .5.5.4 1.1zm1.1 3c-.4.3-.6 0-.6-.9-.1-1.3.2-1.4.6-.1l.2.8-.2.2zm5-11.2c.1 0 .1.1 0 .2v.1c-.1-.2-.1-.3 0-.3zm-.9-.3s.1 0 0 0c.1.1.1.1.2 0s.1-.1 0 .1c-.1.1 0 .2.1.1.1 0 .2 0 .2.1s-.1.2-.2.2h-.1s0-.1-.1-.2-.1-.2-.1-.3zm6.9 12.6c-.1.1-.2.3-.3.4 0 .2-.1.3-.3.3-.5.1-.7-.1-.7-.6v-.4l-.2.3c-.2.3-.3.4-.5.1-.1-.2-.1-.2-.1.1 0 .2-.1.2-.5.2-.3 0-.5-.1-.7-.2-.1-.1-.3-.2-.3-.2s-.2-.1-.3-.2c-.1-.1-.3-.2-.4-.2-.1 0-.3-.1-.3-.1 0-.1-.3-.2-1-.3-.2 0-.7-.1-.9-.1-.3 0-1.1-.1-1.9-.1-.7 0-1.4-.1-1.4-.2-.1-.2-.3-.1-.5.1-.3.4-.3.1-.3-1.3 0-1.3 0-1.7.3-2 .2-.2.2-.2.5-.1.1.1.3.2.3.3 0 .1.2.2.4.3.2 0 .4.1.4.2s.3.1.9.2c.6 0 .9.1.9.2s.2.2.4.3c.2.1.4.2.4.3.1.2.9.5 1.1.5.1 0 .2 0 .2.1s.5.3 1 .4c.2 0 .4.1.5.2.1.1.3.1.5.1s.5 0 .9.3c.3.2.7.3.9.3.2 0 .5.1.7.3.5.3.5.3.3.5z" />
      <path
        d="M56.5 51.6c-.1.1-.1.2-.1.3.2.3.5.5.5.2 0-.1 0-.1-.1-.1-.1.1-.3-.1-.3-.3 0-.1 0-.1.1-.1s.1 0 .1-.1v-.2c0 .2-.1.2-.2.3zm-14 6.7c-.7.1-.9.2-.9.7 0 .3-.1.4-.3.1-.1-.1-.3-.1-.7-.1-.6 0-.7.1-.9.4l-.1.2-.2-.3c-.2-.2-.3-.3-.8-.2-.4.1-.6.1-.7.3-.1.2-.3.3-.5.3-.3 0-1.3.7-1.3.9 0 .1-.2.2-.5.3-.6.2-.6.4-.5 1.6.1.9 0 1-.4.6-.2-.2-.2-.2-.4-.1-.3.2-.1 1.9.3 2.3.1.1.2.5.3.8.1.4.1.6.3.7.2.1.3.3.3.5s.1.4.3.5c.2.1.3.4.3.7 0 .3.2.5.3.7.1.1.3.3.3.4 0 .1.1.3.3.5.5.5.7.9.9 1.2.1.2.2.3.2.3l.6.4c.2.2.6.5.7.5.1 0 .3.1.4.1.1.1.3.2.5.3.2.1.4.2.4.3 0 .1.3.1.6.1.4 0 .6.1.7.2.1.2.3.2 1.8.1 1.8-.1 2.4-.2 3-.5.2-.1.7-.3 1-.3.5-.1.7-.1.9-.3.4-.4 1-.9 1.1-.9 0 0 .2-.2.3-.5.1-.3.3-.5.4-.6l.2-.2s.2-.3.4-.5.4-.6.5-.7c0-.2.1-.3.2-.4.1 0 .1-.2.1-.4 0-.3.2-.6.4-.5 0 0 .1-.3.1-.7 0-.5 0-.7.1-.8.2-.2.2-1.5-.1-4.7l-.1-.8-.8-.8c-.9-.9-1.2-.9-1.3-.4-.2.5-.8.7-.8.3 0-.6-.7-.7-1.3-.2l-.4.3-.3-.3c-.1-.1-.3-.3-.4-.3-.1 0-.1-.1-.2-.2 0-.1-.2-.2-.4-.2-.3 0-.5-.1-.9-.4-.5-.4-.6-.4-1.4-.4-.6 0-1.3.1-1.6.1zm1.6 1.1c.4 0 .4 0 .4.3 0 .1.1.3.2.5.2.2.3.2 1 .1.7 0 .8 0 .8.1s.1.2.3.3c.1.1.3.2.3.3.1.2.9.2 1.2 0 .1-.1.2-.1.5 0 .2.1.3.2.4.3 0 .1.1.2.2.2s.4.5.4.8c0 .4 0 .5.3.6.1 0 .3.1.3.2s0 .7.1 1.4c.1 2.1.2 2.1-.2 2.1-.2 0-.3.1-.4.2-.1.1-.1.2.1.4.3.2.4 1 .1 1.2-.1.1-.2.3-.2.6 0 .4 0 .4-.2.2-.5-.5-.8-.2-.7.7v.6l-.5.1c-.5.1-.5.1-.5.3 0 .1-.1.3-.2.3s-.2.1-.2.2-.1.2-.3.3c-.3.1-.3.1-.3-.1 0-.3-.2-.5-.7-.4-.4 0-.4.1-.5.3-.1.4.2.6.6.6h.3c-.1.1-.8.2-1.9.2-.6 0-1.2.1-1.3.1-.2.1-.3 0-.4-.2-.1-.2-.2-.3-.5-.3-.2 0-.4 0-.4-.1s-.1-.2-.2-.3c-.1-.1-.1-.2 0-.2s.1-.1.1-.4c0-.3-.1-.4-.2-.4s-.3-.1-.4-.2c-.5-.3-.5-.3-.7-.2-.4.2-.2 1.1.3 1.2.3.1.3.1.2.2l-.2.2c0 .1-.1.1-.2-.1-.1-.1-.3-.2-.4-.2-.3 0-.4-.2-.4-.5s-.3-.5-.5-.4c-.1 0-.2 0-.3-.1-.1-.1-.2-.1-.4.1l-.2.2-.1-.4c-.1-.3-.2-.5-.3-.5-.1 0-.2-.1-.2-.1s-.1-.2-.3-.3c-.2-.1-.3-.4-.3-.6 0-.2-.2-.5-.3-.7s-.3-.4-.3-.5c0-.2-.2-.6-.4-.6l-.2-.6c0-.3-.1-.6-.2-.7-.1-.1 0-.2 0-.3.1-.1.1-.2.1-.4s-.1-.3-.3-.3c-.1 0-.2-.1-.2-.1 0-.1.6-.7.7-.7.1 0 .1-.3 0-.9-.1-.9-.1-.9.2-1 .1-.1.5-.4.9-.8.3-.4.7-.7.8-.8.1 0 .6-.1 1-.1 1.1 0 2.8-.2 3-.3l.2-.2c0-.2.5-.5.9-.4h.7z" />
      <path
        d="M42.8 59.9c-.1.1-.1.4.1.4.1 0 .3.1.4.3.2.2.2.2.3 0 .1-.1.1-.2-.2-.3-.2-.1-.3-.2-.2-.2.1 0 0-.1 0-.2s-.2-.1-.4 0zm2 1.2c-.3.3.2.9.6.6.1-.1.1-.3.1-.4 0-.2-.1-.3-.3-.3-.2 0-.4 0-.4.1zm-3.3.7c-.3.2-.2.8.1.8.1 0 .3.1.4.2l.2.2.2-.2.2-.2-.3-.2c-.2-.1-.3-.3-.3-.3.1-.4-.2-.5-.5-.3zm5.9 0c-.4.3 0 .9.4.6.2-.2.3-.4.1-.6-.2-.1-.3-.2-.5 0zm-8.2 2.1c-.3.2-.1.7.2.7.1 0 .3-.1.4-.2.1-.3.1-.3-.1-.5-.1-.1-.2-.2-.5 0zm4.8.2c-.2.3 0 .7.4.6.2 0 .3-.1.3-.3.1-.5-.5-.7-.7-.3zm3.9.2c-.2.4.1.8.5.6.3-.2.2-.7-.1-.7-.2-.1-.3 0-.4.1zm-2.1 1.8v.3c.2.2.5 0 .4-.2 0-.3-.4-.4-.4-.1zm-3.4.7c0 .1 0 .2.2.3.1.1.2.2.2.3 0 .1.1.2.2.3.2.1.3.1.4-.1s.2-.3.1-.4c-.1-.1-.2-.2-.3-.2s-.3-.1-.3-.2c-.2-.2-.4-.2-.5 0zm-4.9.3c-.3.3.2.7.5.5.2-.2.1-.6-.1-.6-.1-.1-.3 0-.4.1zm2.6 1.1c-.3.2-.1.7.2.7.5 0 .6-.4.3-.7-.2-.1-.3-.1-.5 0zm-2 .4c-.2.5-.1 1 .3 1 .3 0 .4-.4.3-.8-.2-.4-.4-.5-.6-.2zm7.8.7c-.1.3 0 .5.3.5s.4-.2.3-.5c0-.2-.4-.2-.6 0zm-2.8.6c-.3.2-.1.7.2.7.3 0 .5-.2.4-.5 0-.2-.3-.3-.6-.2zm.6 1.5c-.1.3-.1.5.1.6.4.2.7-.2.5-.6-.1-.2-.5-.2-.6 0zm11.7-9.7c-.5.1-.3.7.2.7.2 0 .4.1.5.3.2.2.2.2.4.1.3-.2.2-.5-.2-.9s-.5-.3-.9-.2zm-1.9.4c-.2.1-.3.3-.3.4 0 .1-.1.3-.1.4-.1.2-.1.2.1.3.3.2.5.1.8-.2.3-.3.3-.4.3-.6-.2-.5-.4-.6-.8-.3zm13.1-3.8c-.2.1-.1.6.1.7.1.1.3.2.4.2.1.1.2.1.3-.1.2-.2.2-.2 0-.3-.1-.1-.2-.2-.2-.3 0-.1-.1-.2-.2-.3-.3 0-.3 0-.4.1zm4.7.1c-.1.1-.1.5.1.6.2.2.7 0 .9-.2.1-.1.1-.2-.1-.3-.2-.2-.7-.2-.9-.1zm-8 1.9c-.1.2.1.3.3.2.1-.1.1-.2 0-.3-.1 0-.2 0-.3.1zm-3.9.1c-.2.2-.2.3.2.7.4.4.6.4 1 .3.5-.2.3-.6-.3-.6-.1 0-.3-.1-.4-.2-.2-.3-.3-.3-.5-.2zm3.9 1.1c-.2.2-.2.5.1.6.4.2.8-.3.5-.6-.2-.2-.4-.2-.6 0zm6.9.4c-.1.1-.1.4 0 .6.3.2 1 0 1-.4.1-.3-.7-.4-1-.2zM68 64c-.1 0-.2.1-.3.2-.3.3.5.7.8.4.2-.2.1-.5-.1-.6-.1-.1-.2-.1-.2-.1s-.1 0-.2.1zm3.4.5c-.1.2.2.4.3.2.1-.1 0-.3-.2-.4.1 0 0 .1-.1.2zm-9.7.5c-.2.2-.1.6.2.7.2.1.4.2.5.2.3.1.3-.1.1-.6-.1-.3-.3-.4-.4-.4-.3 0-.4.1-.4.1zm9.7.1c-.2.1-.2.8 0 1.1.1.2.6.3.7 0 .1-.1.1-.3 0-.7-.1-.4-.1-.5-.4-.5-.1.1-.2.1-.3.1zm-1 .8c-.2.4.1.8.5.6.2-.1.2-.6 0-.7-.2-.2-.4-.1-.5.1zm-2.9 1c-.3 0-.5.4-.4.6.1.1.2.2.6.1.5 0 .5 0 .6-.4 0-.2 0-.3-.1-.3h-.7zm.6 1.6c-.4.4.3.7.9.5.6-.2.4-.7-.3-.7-.3 0-.5.1-.6.2zm.7 8.6c0 .1.1.1.1.1.2-.1.2.2 0 .4-.1.1-.1.1.1.1.1 0 .2-.1.2-.3v-.2s-.1 0-.2-.1c-.2-.1-.2-.1-.2 0zM53.3 12.2c-.5.6-.5.6-.3.7.1 0 .2.2.2.3 0 .1.1.3.1.3.1 0 .1.1.1.2s.1.3.3.4.2.3.2.3c0 .1.1.2.2.4.1.1.3.3.3.4 0 .1.2.3.4.5s.4.3.3.4c0 .1 0 .2.1.3.1.1.1.2.1.3 0 .1.1.3.3.4.1.1.2.3.2.4 0 .1 0 .2.1.3.1.1.1.2.1.3 0 .1.1.3.3.4.1.1.2.3.2.3 0 .1.1.2.2.4.1.1.3.3.3.5 0 .1.1.2.1.3.2.1.2.6.1.8-.1.1-.1.2-.1.3v.2c-.2.1-.1.7.2 1 .1.1.3.3.3.4 0 .1.2.4.5.6.5.4.5.4.7 1.7 0 .2.1.4.1.5.1.1.3 1.8.2 1.9 0 0-.1.4 0 .9v.8h.5c.4 0 .6.1 1 .4.3.2.5.4.6.4.1 0 .3-.9.3-1.2v-.3s.3.2.6.5.7.5.8.4c.1 0 .3.1.5.3.2.2.4.3.5.2.1 0 .4.2.9.5.4.3.8.6.9.5.1 0 .4.1.7.4.5.4.6.5 1.4.6.9.1 2.1.2 2.3.1 0 0 .2 0 .3.1.1.1.2.1.3 0 .1-.1.4-.1.8-.2 1.5-.2 1.7-.2 1.8-.3.1-.1.3-.1.5-.1s.5-.1.5-.2c.1-.1.2-.1.3-.1s.2-.1.3-.1c.1-.1.2-.1.3-.1.1 0 .2-.1.2-.2 0-.2 0-.2.2-.1s.3.1.5-.1c.2-.1.3-.2.4-.2 0 0 .2-.1.4-.3.2-.2.3-.3.4-.3.1 0 .2 0 .3-.2.2-.2.2-.2 0-.4-.1-.1-.2-.3-.2-.4 0-.1-.1-.2-.2-.3-.1-.1-.2-.2-.2-.3 0-.1-.1-.3-.2-.4-.1-.1-.2-.3-.2-.4 0-.1-.1-.2-.2-.3-.1-.1-.1-.2-.1-.2 0-.1-.1-.2-.2-.4-.2-.1-.3-.4-.3-.5s-.1-.3-.3-.4c-.1-.1-.2-.2-.2-.3 0-.1-.1-.3-.3-.5-.2-.2-.4-.4-.4-.5s-.3-.4-.6-.7c-.3-.3-.6-.5-.6-.7 0-.2-.8-.9-1-.9-.1 0-.1.1-.1.3 0 .1-.1.3-.1.3-.1 0-.1.2-.1.3 0 .3-.6 1.1-.9 1.1-.1 0-.3.1-.3.2s-.2.2-.3.2c-.1 0-.3.1-.4.2-.1.1-.3.2-.5.2-.4 0-.7.1-1.1.2-.2.1-.7.1-1 .1h-.7c-.1 0-.4 0-.8-.1s-.8-.1-.9-.1c-.1 0-.5 0-.9-.1s-.8-.1-1-.2c-.6-.1-1.6-.3-1.7-.4-.1-.1-.2-.1-.2 0-.1 0-.2 0-.3-.1h-.5s-.2 0-.3-.1c-.1-.1-.4-.2-.5-.2-.3 0-.5-.3-.5-.6 0-.8 0-.8.2-.8.1 0 .2-.1.3-.1.1-.1.6-.1.8 0 .1.1.3.2.5.2.1 0 .6.1.9.2s.8.2.9.2c.1 0 .3 0 .3.1.1.1.3.1.5.1s.4 0 .4.1c0 0 .3.1.5 0 .3 0 .5 0 .5.1s.3.1.5 0c.3 0 .9-.1 1.3-.1 1.3-.1 1.6-.2 1.8-.3.1-.1.3-.2.3-.2.2 0 1.3-1.3 1.3-1.6 0-.1.1-.3.1-.3.1 0 .1-.1.1-.2 0-.2-2.6-2.4-2.9-2.4-.1 0-.6-.3-1.1-.7-.5-.4-1-.7-1-.7-.1 0-.5-.2-.8-.5-.4-.3-.8-.6-.9-.5-.1 0-.3-.1-.6-.3-.3-.2-.6-.4-.7-.4-.1 0-.4-.1-.6-.3-.2-.1-.4-.2-.5-.2-.1 0-.3 0-.4-.1.2-.3 0-.4-.1-.4-.2 0-.3-.1-.4-.2s-.2-.2-.4-.2c-.1 0-.4-.1-.6-.3-.2-.1-.4-.3-.5-.2-.1 0-.3 0-.4-.1-.1-.1-.5-.2-.8-.3-.3-.1-.6-.2-.8-.3-.1-.1-.3-.2-.4-.1s-.3 0-.4-.1c-.1-.1-.3-.2-.5-.2-.1 0-.3 0-.5-.1-.2 0-.3-.1-.4-.1 0 0-.2-.1-.3-.1-.1 0-.3 0-.3-.1s-.2-.1-.4-.1c0 .2-.2.3-.5.7zm10.8 6.4c.2.2.4.4.3.4-.2 0-1.1-.8-.9-.8.1-.1.4.1.6.4zm1.9 1.1c.6.6.5.6-.2.1-.6-.5-.7-.6-.5-.6.1 0 .4.2.7.5zM61.7 27c0 .1 0 .2-.1.3-.2.2-.5-.1-.4-.3.1-.2.4-.2.5 0z" />
      <path
        d="M62.6 30.1c-.1.2 0 .3.2.3.1 0 .1-.1.1-.2s-.2-.2-.3-.1zm.8.4c-.1.2.1.4.4.4.1 0 .3.1.4.1.2.1.2.1.3 0 .2-.2-.1-.5-.4-.5-.2 0-.3-.1-.4-.1 0-.1-.2-.1-.3.1zm1.5.5c0 .1.1.2.2.1.2 0 .2-.2 0-.3-.2.1-.2.1-.2.2zm-21.8 69.4c0 .1.1.2.2.3.1.1.2.1.2 0s-.1-.2-.2-.3c-.2-.1-.2-.1-.2 0zm64.6 4c.1.1.1.2-.1.1-.1 0-.1 0 0 .1s.1.1.2 0c.2-.2.2-.4 0-.4s-.2 0-.1.2zM75 107.5s0 .2.1.3c.1.2.1.2.1 0 0-.1-.1-.3-.2-.3 0 0-.1 0 0 0z" />
    </symbol>
  </defs>
</svg>