<svg xmlns="http://www.w3.org/2000/svg" version="1.1" xmlns:xlink="http://www.w3.org/1999/xlink" xmlns:svgjs="http://svgjs.com/svgjs" width="24" height="24"><svg id="SvgjsSvg1000" xmlns="http://www.w3.org/2000/svg" width="24" height="24" viewBox="0 0 24 24"><path d="m21.86,14.41c.59-1.32.95-2.68.82-4.12-.13-1.45-.13-2.9-.37-4.34-.1-.65.24-1.42-.37-1.99-.06-.04-.04-.22-.04-.34,0-.01,0-.02,0-.03-.26-.12-.5-.27-.73-.42,0,0,0,0,0,0l-.06.65h0c-.47-.18-.93-.39-1.38-.61-1.3-.76-2.71-.74-4.12-.83-.55-.03-1.08-.12-1.63-.15-.79-.03-1.6-.1-2.39,0-1,.11-1.99.34-2.93.68-1.24.49-2.42,1.16-3.62,1.75l-.21.13c-.46-.39-.62-.89-.7-1.44-.02-.16-.04-.32-.06-.48-.16.01-.33.02-.5.02.01.06.02.11.03.17.07.4-.1.59-.5.62-.22,0-.43-.03-.64,0-.13.01-.25.07-.34.16-.57.66-.86,1.52-.82,2.39.1,1.29.16,2.58.25,3.88.01.25.07.52.07.8-.01.65.43,1.39-.31,1.93,0,0,0,0,0,0,.26.56.44,1.16.54,1.77.37.55.63,1.17.81,1.81.39.37.7.81.98,1.27.3.18.6.37.87.61.72.47,1.29,1.08,1.7,1.85.03.07.06.13.1.2.04.02.08.05.12.08.87.04,1.69.23,2.47.59.11,0,.21-.02.32-.02,1.19,0,2.2.26,3.06.71h0c.31,0,.61.02.9.06.54-.41,1.13-.72,1.82-.89.71-.12,1.41-.24,2.12-.35.49-.13.97-.19,1.46-.22.18-.23.35-.47.57-.67.31-.34.66-.62,1.04-.85.22-.17.45-.33.69-.48.36-.81.87-1.56,1.54-2.15-.16-.31-.31-.62-.44-.94-.1-.25-.19-.62-.1-.84Zm-.24-7.78h0s.15,2,.15,2c-.5-.65-.89-1.32-.15-2Zm-.47,2.77c.1.67.06,1.35-.1,2.02-.33,1.36-.92,2.56-2.1,3.5-1.06.83-2.23,1.5-3.48,2-1.22.49-2.4.44-3.63.4-.43-.03-.86-.13-1.26-.33-.97-.45-1.93-.94-2.86-1.47-.36-.19-.65-.49-.86-.83-.5-.84-.95-1.72-1.33-2.62-.21-.5-.21-1.11-.3-1.67h.09v-.37c-.15-.76.19-1.22.86-1.51,1.23-.55,2.42-1.22,3.69-1.63,1.11-.42,2.28-.64,3.47-.67,1.75.03,3.51-.12,5.22.4.5.16.99.37,1.48.56.1.04.19.12.25.22.31.67.73,1.3.87,2ZM5.53,5.4c1.76-.96,3.5-1.94,5.57-2.18.39-.04.79-.16,1.19-.25.16-.05.32-.07.49-.07,1.67.12,3.36.24,5.04.42,1.19.1,2.12.86,3.16,1.33.07.04.12.27.1.41-.04.44-.15.87-.25,1.42-.41-.04-.82-.14-1.2-.31-1.01-.55-2.13-.44-3.23-.59-3.25-.35-6.53.25-9.44,1.73-.55.27-1.13.49-1.72.74-.3-.47-.21-1.02-.22-1.54,0-.1.12-.21.07-.25-.3-.52.15-.71.44-.86Zm12.46,12.45c-.95.49-1.88,1.01-2.85,1.45-.31.13-.68.12-1.02.16-1.35.21-2.62-.24-3.91-.53-.42-.09-.84-.15-1.29-.22-1.15-.22-2.22-.75-3.08-1.54l-.03-.03c-1.73-1.35-2.89-3.31-3.25-5.48-.39-1.47-.57-3-.53-4.52v-.56c.27.44.46.79.67,1.08.06.08.15.15.24.19.55.37.89.22.95-.42.03-.47.03-.93,0-1.41-.01-.1-.04-.2-.1-.28-.2-.32-.62-.42-.94-.22l-.61.39c-.24-.76.15-1.69.89-1.47.3.09.55.29.7.56.22.56.33,1.19.5,1.78.39,1.24.19,2.55.24,3.82.04,1.24.55,2.33,1.05,3.44.73,1.59,2.05,2.43,3.56,3.14,1.32.67,2.79.98,4.27.9.83-.06,1.62-.1,2.36-.5l2.37-1.27c2-1.05,2.86-2.82,3.53-4.77.09-.24.07-.52.15-.77.22.77.18,1.6-.12,2.34-.75,1.91-2.05,3.56-3.73,4.74Z" fill="none" stroke="#000" stroke-width=".4"></path><path d="m21.62,6.66l.15,2c-.5-.65-.89-1.32-.15-2Z" stroke="#000" stroke-width=".4"></path><path d="m14.97,15.2l-1.07-.82c-.61.36-.96,1.36-2,.68.33-.25.61-.5.92-.7s.3-.41.13-.68c-.15-.15-.28-.32-.39-.5-.08-.19-.1-.39-.07-.59,0-.06.3-.09.44-.1l1.29-.07h.53c.01.24,0,.47-.03.71-.09.22-.49.33-.24.67.13.21.3.41.46.59.43.33.44.37,0,.82h.01Z"></path><path d="m18.38,9.05c.34,0,.73-.09.76.44.03.33-.07.5-.4.55-.71.12-1.36.45-1.87.96-.32.34-.86.35-1.19.02-.02-.02-.03-.03-.05-.05-.19-.21-.12-.68.15-1.02.37-.49.95-.61,1.48-.77.37-.09.74-.13,1.13-.15h0Z" stroke="#000" stroke-width=".4"></path><path d="m11.04,10.96c-.36-.1-.62-.18-.89-.28-.49-.19-.98-.4-1.45-.64-.17-.07-.33-.18-.44-.33-.33-.5-.15-.79.41-.74.44.01.89.15,1.32.21l.53.04c.68,0,1.3.71,1.11,1.38-.06.16-.4.24-.59.36h0Z" stroke="#000" stroke-width=".4"></path><path d="m3.56,7.86c-.16-.1-.27-.17-.39-.28-.21-.19-.43-.39-.64-.62-.08-.07-.14-.18-.2-.32-.14-.49-.07-.77.18-.73.2.01.39.15.58.2l.23.04c.3,0,.57.7.49,1.35-.03.16-.18.23-.26.35h0Z" stroke="#000" stroke-width=".4"></path><path d="m3.79,7.34c-.12-.08-.21-.15-.3-.23-.17-.16-.33-.33-.49-.52-.06-.06-.11-.15-.15-.27-.11-.41-.05-.64.14-.61.15.01.3.12.45.17l.18.04c.23,0,.44.58.38,1.13-.02.13-.14.19-.2.29h0Z" stroke="#000" stroke-width=".4"></path></svg><style>@media (prefers-color-scheme: light) { :root { filter: none; } }
@media (prefers-color-scheme: dark) { :root { filter: invert(100%); } }
</style></svg>